<svg width="34" height="35" viewBox="0 0 34 35" fill="none" xmlns="http://www.w3.org/2000/svg">
<g id="Frame">
<g id="Group">
<path id="Vector" d="M15.7715 31.9424C15.8107 31.9854 15.8633 32.0138 15.9208 32.0231C15.9782 32.0324 16.0371 32.0219 16.0878 31.9934C24.9479 27.0284 34.1088 16.3179 33.1517 9.85839C32.8874 8.07339 31.8808 6.32755 30.391 5.06903C26.2852 1.6 19.9798 2.53345 17.0851 7.16467C14.3945 3.34173 7.94893 2.21612 3.77054 5.82836C1.46369 7.82303 0.327266 11.0824 0.942872 13.9384C1.88045 18.2894 6.28448 21.5683 15.7715 31.9424ZM18.6249 25.3959L19.5878 26.3587L18.3442 27.6023L17.3814 26.6395L18.6249 25.3959ZM21.9358 24.3754L22.4947 24.9343L21.6298 25.7992L21.0709 25.2403L21.9358 24.3754ZM20.889 25.0579L20.4311 24.6L21.296 23.735L21.7534 24.193L20.889 25.0579ZM22.5931 26.7621L21.8122 25.9811L22.6771 25.1162L23.5024 25.9414C23.2036 26.2196 22.9002 26.4932 22.5931 26.7621ZM17.0985 30.7978L16.3062 30.0055L17.1712 29.1405L18.0201 29.9895C18.0321 30.0015 18.0463 30.011 18.062 30.0174C18.0776 30.0239 18.0944 30.0273 18.1113 30.0273C18.1283 30.0273 18.145 30.0239 18.1607 30.0174C18.1763 30.011 18.1905 30.0015 18.2025 29.9895C18.2145 29.9775 18.224 29.9633 18.2305 29.9477C18.2369 29.932 18.2403 29.9152 18.2403 29.8983C18.2403 29.8814 18.2369 29.8646 18.2305 29.849C18.224 29.8333 18.2145 29.8191 18.2025 29.8071L18.0686 29.6732C18.1021 29.673 18.1343 29.6597 18.1582 29.6361L19.086 28.7083L19.3709 28.9932C19.3828 29.0055 19.397 29.0153 19.4127 29.022C19.4284 29.0287 19.4453 29.0322 19.4624 29.0324C19.4795 29.0325 19.4965 29.0292 19.5123 29.0227C19.5281 29.0162 19.5425 29.0066 19.5546 28.9945C19.5666 28.9824 19.5762 28.968 19.5826 28.9522C19.5891 28.9363 19.5923 28.9194 19.5922 28.9023C19.592 28.8852 19.5884 28.8683 19.5816 28.8526C19.5749 28.8369 19.565 28.8227 19.5527 28.8108L19.2678 28.5259L20.5114 27.2824L20.9972 27.7682C21.0091 27.7804 21.0233 27.7902 21.039 27.797C21.0548 27.8037 21.0717 27.8072 21.0888 27.8073C21.1059 27.8075 21.1228 27.8042 21.1386 27.7977C21.1545 27.7912 21.1688 27.7816 21.1809 27.7695C21.193 27.7574 21.2025 27.743 21.209 27.7271C21.2154 27.7113 21.2187 27.6943 21.2185 27.6772C21.2183 27.6602 21.2147 27.6433 21.208 27.6276C21.2012 27.6119 21.1914 27.5977 21.1791 27.5858L20.6933 27.1L21.6303 26.1629L22.401 26.9336C20.744 28.3674 18.9714 29.6617 17.1011 30.8034C17.0991 30.8019 17.1001 30.7993 17.0985 30.7978ZM17.9382 29.5434L17.353 28.9582L18.3442 27.967L18.9031 28.5259L17.9753 29.4537C17.9518 29.4776 17.9384 29.5098 17.9382 29.5434ZM21.448 25.9811L20.5109 26.9182L19.952 26.3592L20.889 25.4222L21.448 25.9811ZM20.3291 27.1L19.0855 28.3436L18.5265 27.7846L19.7701 26.5411L20.3291 27.1ZM18.1618 27.7852L17.1707 28.7763L16.2073 27.8135L17.1985 26.8223L18.1618 27.7852ZM16.9888 28.9582L16.1239 29.8231L15.1611 28.8598L16.0255 27.9948L16.9888 28.9582ZM15.942 30.0055L15.2878 30.6597C14.9797 30.3269 14.6706 29.9952 14.359 29.6624L14.9787 29.0426L15.942 30.0055ZM16.0136 31.4438C15.8318 31.2454 15.6463 31.0471 15.4629 30.8488L16.1239 30.1878L16.8734 30.9374C16.5885 31.1084 16.3031 31.2794 16.0136 31.4438ZM28.9274 19.6674L28.0955 18.8354L28.9238 18.0065L29.6162 18.6989C29.3956 19.0346 29.1699 19.3669 28.9393 19.6957C28.9336 19.687 28.9352 19.6751 28.9274 19.6674ZM27.9131 18.6531L27.5164 18.2564L28.3448 17.428L28.7415 17.8247L27.9131 18.6531ZM29.7615 18.48L29.1062 17.8247L29.473 17.4579C29.4972 17.4337 29.5108 17.4009 29.5108 17.3667C29.5108 17.3325 29.4972 17.2997 29.473 17.2755C29.4488 17.2514 29.416 17.2378 29.3818 17.2378C29.3476 17.2378 29.3148 17.2514 29.2906 17.2755L28.9238 17.6423L28.5272 17.2457L29.5544 16.2185L30.0824 16.746L29.5832 17.2452C29.5713 17.2571 29.5618 17.2713 29.5553 17.287C29.5488 17.3026 29.5455 17.3194 29.5455 17.3363C29.5455 17.3533 29.5488 17.37 29.5553 17.3857C29.5618 17.4013 29.5713 17.4155 29.5832 17.4275C29.5952 17.4395 29.6094 17.449 29.6251 17.4555C29.6407 17.4619 29.6575 17.4653 29.6744 17.4653C29.6914 17.4653 29.7081 17.4619 29.7238 17.4555C29.7394 17.449 29.7536 17.4395 29.7656 17.4275L30.2648 16.9283L30.442 17.1055C30.4858 17.1493 30.5533 17.1612 30.6146 17.1097C30.3396 17.5722 30.0552 18.0291 29.7615 18.48ZM32.651 11.9113L32.4871 11.7475L32.6865 11.5481C32.6762 11.6697 32.6664 11.7907 32.651 11.9113ZM4.10745 6.21782C8.16684 2.70758 14.4826 3.95167 16.8791 7.78542C16.927 7.8627 16.9986 7.90494 17.1037 7.90649C17.1484 7.90542 17.1921 7.89269 17.2304 7.86956C17.2687 7.84643 17.3003 7.8137 17.3221 7.77461C21.5067 0.295121 33.0502 3.42106 32.7035 11.2596C32.6613 11.2498 32.6175 11.2529 32.5845 11.2859L32.3043 11.5661L32.2224 11.4842C32.1982 11.46 32.1654 11.4464 32.1312 11.4464C32.097 11.4464 32.0642 11.46 32.04 11.4842C32.0158 11.5084 32.0022 11.5412 32.0022 11.5754C32.0022 11.6096 32.0158 11.6424 32.04 11.6666L32.1219 11.7485L31.3239 12.5465C31.3116 12.5584 31.3019 12.5726 31.2951 12.5883C31.2884 12.604 31.2849 12.6209 31.2848 12.638C31.2846 12.6551 31.2879 12.6721 31.2944 12.6879C31.3009 12.7037 31.3105 12.7181 31.3226 12.7302C31.3347 12.7422 31.3491 12.7518 31.3649 12.7582C31.3808 12.7647 31.3977 12.7679 31.4148 12.7677C31.4319 12.7676 31.4488 12.764 31.4645 12.7572C31.4802 12.7505 31.4944 12.7406 31.5063 12.7283L31.5207 12.7139C31.5269 12.7252 31.5254 12.7391 31.5351 12.7489L32.1379 13.3516C32.1498 13.3639 32.164 13.3737 32.1797 13.3804C32.1954 13.3872 32.2123 13.3907 32.2294 13.3908C32.2465 13.3909 32.2635 13.3877 32.2793 13.3812C32.2951 13.3747 32.3095 13.3651 32.3216 13.353C32.3336 13.3409 32.3432 13.3265 32.3496 13.3106C32.3561 13.2948 32.3593 13.2778 32.3592 13.2607C32.359 13.2436 32.3554 13.2267 32.3486 13.211C32.3419 13.1953 32.332 13.1811 32.3197 13.1693L31.7175 12.5665C31.7077 12.5568 31.6943 12.5578 31.6825 12.5521L32.3048 11.9298L32.601 12.226C32.3032 14.0105 31.4532 15.6848 30.6408 17.0633C30.6614 17.0164 30.662 16.9623 30.6233 16.9237L30.4461 16.747L30.7717 16.4214C30.7837 16.4095 30.7932 16.3952 30.7996 16.3796C30.8061 16.3639 30.8095 16.3472 30.8095 16.3302C30.8095 16.3133 30.8061 16.2965 30.7996 16.2809C30.7932 16.2653 30.7837 16.251 30.7717 16.2391C30.7597 16.2271 30.7455 16.2176 30.7299 16.2111C30.7142 16.2046 30.6974 16.2013 30.6805 16.2013C30.6636 16.2013 30.6468 16.2046 30.6312 16.2111C30.6155 16.2176 30.6013 16.2271 30.5893 16.2391L30.2638 16.5646L29.4787 15.7795C29.4545 15.7554 29.4217 15.7418 29.3875 15.7418C29.3533 15.7418 29.3205 15.7554 29.2963 15.7795C29.2721 15.8037 29.2585 15.8365 29.2585 15.8707C29.2585 15.9049 29.2721 15.9377 29.2963 15.9619L29.3715 16.0371L28.3443 17.0643L28.1789 16.899C28.1671 16.8867 28.1529 16.8768 28.1372 16.8701C28.1215 16.8633 28.1046 16.8597 28.0875 16.8595C28.0704 16.8594 28.0534 16.8626 28.0376 16.8691C28.0217 16.8755 28.0073 16.885 27.9952 16.8971C27.9831 16.9092 27.9735 16.9236 27.967 16.9394C27.9605 16.9552 27.9573 16.9721 27.9574 16.9892C27.9575 17.0063 27.961 17.0233 27.9678 17.039C27.9745 17.0547 27.9843 17.0689 27.9966 17.0808L28.1619 17.2462L27.3336 18.0745L27.1682 17.9092C27.1562 17.8972 27.142 17.8877 27.1264 17.8812C27.1107 17.8747 27.094 17.8714 27.077 17.8714C27.0601 17.8714 27.0433 17.8747 27.0277 17.8812C27.012 17.8877 26.9978 17.8972 26.9858 17.9092C26.9739 17.9212 26.9644 17.9354 26.9579 17.951C26.9514 17.9667 26.9481 17.9834 26.9481 18.0004C26.9481 18.0173 26.9514 18.0341 26.9579 18.0497C26.9644 18.0654 26.9739 18.0796 26.9858 18.0915L27.1512 18.2569L26.7643 18.6438C26.752 18.6557 26.7423 18.6699 26.7355 18.6856C26.7288 18.7014 26.7253 18.7183 26.7251 18.7354C26.725 18.7525 26.7283 18.7694 26.7348 18.7852C26.7413 18.801 26.7509 18.8154 26.763 18.8275C26.7751 18.8396 26.7895 18.8491 26.8053 18.8556C26.8212 18.862 26.8381 18.8652 26.8552 18.8651C26.8723 18.8649 26.8892 18.8613 26.9049 18.8546C26.9206 18.8478 26.9348 18.838 26.9467 18.8256L27.3336 18.4388L27.7302 18.8354L26.6556 19.91C26.6314 19.9342 26.6179 19.967 26.6179 20.0012C26.6179 20.0354 26.6314 20.0682 26.6556 20.0924C26.6798 20.1166 26.7126 20.1302 26.7468 20.1302C26.781 20.1302 26.8138 20.1166 26.838 20.0924L27.9126 19.0178L28.7446 19.8498C28.7626 19.8678 28.7868 19.8719 28.81 19.8771C27.2995 22.0025 25.5841 23.9745 23.6884 25.7647L22.8584 24.9348L23.2093 24.584C23.2215 24.5721 23.2313 24.5579 23.2381 24.5422C23.2448 24.5264 23.2483 24.5095 23.2484 24.4924C23.2486 24.4753 23.2453 24.4584 23.2388 24.4426C23.2323 24.4267 23.2227 24.4124 23.2106 24.4003C23.1985 24.3882 23.1841 24.3787 23.1683 24.3722C23.1524 24.3658 23.1355 24.3625 23.1184 24.3627C23.1013 24.3629 23.0844 24.3665 23.0687 24.3732C23.053 24.38 23.0388 24.3898 23.0269 24.4022L22.6761 24.753L22.1171 24.194L22.1676 24.1435C22.1796 24.1316 22.1891 24.1174 22.1956 24.1017C22.2021 24.0861 22.2054 24.0693 22.2054 24.0524C22.2054 24.0354 22.2021 24.0187 22.1956 24.003C22.1891 23.9874 22.1796 23.9732 22.1676 23.9612C22.1557 23.9492 22.1414 23.9397 22.1258 23.9332C22.1101 23.9268 22.0934 23.9234 22.0764 23.9234C22.0595 23.9234 22.0427 23.9268 22.0271 23.9332C22.0115 23.9397 21.9972 23.9492 21.9853 23.9612L21.9348 24.0117L21.4768 23.5537L22.3958 22.6347L23.1634 23.4022L22.8116 23.7541C22.7996 23.7661 22.7901 23.7803 22.7836 23.7959C22.7771 23.8116 22.7738 23.8283 22.7738 23.8453C22.7738 23.8622 22.7771 23.879 22.7836 23.8946C22.7901 23.9103 22.7996 23.9245 22.8116 23.9365C22.8235 23.9484 22.8378 23.9579 22.8534 23.9644C22.869 23.9709 22.8858 23.9742 22.9028 23.9742C22.9197 23.9742 22.9365 23.9709 22.9521 23.9644C22.9677 23.9579 22.982 23.9484 22.9939 23.9365L23.3458 23.5846L24.4698 24.7087C24.4818 24.7206 24.496 24.7301 24.5117 24.7366C24.5273 24.7431 24.5441 24.7464 24.561 24.7464C24.578 24.7464 24.5947 24.7431 24.6104 24.7366C24.626 24.7301 24.6402 24.7206 24.6522 24.7087C24.6642 24.6967 24.6737 24.6825 24.6802 24.6668C24.6866 24.6512 24.69 24.6344 24.69 24.6175C24.69 24.6006 24.6866 24.5838 24.6802 24.5681C24.6737 24.5525 24.6642 24.5383 24.6522 24.5263L23.5281 23.4022L24.8804 22.05L25.5826 22.7521L25.105 23.2297C25.0808 23.2539 25.0673 23.2866 25.0673 23.3209C25.0673 23.355 25.0808 23.3878 25.105 23.412C25.1292 23.4362 25.162 23.4498 25.1962 23.4498C25.2304 23.4498 25.2632 23.4362 25.2874 23.412L25.7649 22.9345L25.9664 23.1359C25.9905 23.1601 26.0233 23.1737 26.0575 23.1737C26.0917 23.1737 26.1245 23.1601 26.1487 23.1359C26.1729 23.1117 26.1865 23.0789 26.1865 23.0447C26.1865 23.0105 26.1729 22.9777 26.1487 22.9535L25.9473 22.7521L27.2748 21.4246C27.2868 21.4126 27.2964 21.3984 27.3028 21.3828C27.3093 21.3671 27.3127 21.3503 27.3127 21.3334C27.3127 21.3165 27.3093 21.2997 27.3028 21.284C27.2964 21.2684 27.2868 21.2542 27.2748 21.2422C27.2717 21.2391 27.2671 21.2402 27.264 21.2376C27.2846 21.2137 27.2955 21.1831 27.2946 21.1516C27.2936 21.1201 27.2809 21.0901 27.2589 21.0676L26.5222 20.3314C26.5204 20.3036 26.5096 20.2772 26.4913 20.2562C26.4706 20.2378 26.4443 20.2269 26.4166 20.2253L25.6161 19.4253C25.6041 19.4133 25.5899 19.4038 25.5742 19.3973C25.5586 19.3908 25.5418 19.3875 25.5249 19.3875C25.5079 19.3875 25.4912 19.3908 25.4755 19.3973C25.4599 19.4038 25.4457 19.4133 25.4337 19.4253C25.4217 19.4372 25.4122 19.4515 25.4057 19.4671C25.3993 19.4828 25.3959 19.4995 25.3959 19.5165C25.3959 19.5334 25.3993 19.5502 25.4057 19.5658C25.4122 19.5814 25.4217 19.5957 25.4337 19.6076L26.1961 20.3701L24.8809 21.6858L24.1134 20.9182L25.1771 19.8539C25.1891 19.8419 25.1986 19.8277 25.2051 19.812C25.2116 19.7964 25.2149 19.7796 25.2149 19.7627C25.2149 19.7458 25.2116 19.729 25.2051 19.7134C25.1986 19.6977 25.1891 19.6835 25.1771 19.6715C25.1652 19.6595 25.151 19.65 25.1353 19.6436C25.1197 19.6371 25.1029 19.6337 25.086 19.6337C25.069 19.6337 25.0523 19.6371 25.0366 19.6436C25.021 19.65 25.0068 19.6595 24.9948 19.6715L23.931 20.7358L23.9197 20.7245C23.8955 20.7003 23.8627 20.6867 23.8285 20.6867C23.7943 20.6867 23.7615 20.7003 23.7373 20.7245C23.7131 20.7487 23.6995 20.7815 23.6995 20.8157C23.6995 20.8499 23.7131 20.8827 23.7373 20.9068L23.7486 20.9182L22.3964 22.2705L22.1506 22.0247C22.1264 22.0005 22.0936 21.987 22.0594 21.987C22.0252 21.987 21.9924 22.0005 21.9683 22.0247C21.9441 22.0489 21.9305 22.0817 21.9305 22.1159C21.9305 22.1501 21.9441 22.1829 21.9683 22.2071L22.214 22.4528L21.295 23.3718L20.8143 22.8912C20.8024 22.8792 20.7881 22.8697 20.7725 22.8633C20.7568 22.8568 20.7401 22.8534 20.7231 22.8534C20.7062 22.8534 20.6894 22.8568 20.6738 22.8633C20.6582 22.8697 20.6439 22.8792 20.632 22.8912C20.62 22.9032 20.6105 22.9174 20.604 22.933C20.5975 22.9487 20.5942 22.9655 20.5942 22.9824C20.5942 22.9993 20.5975 23.0161 20.604 23.0317C20.6105 23.0474 20.62 23.0616 20.632 23.0736L21.1126 23.5542L20.2482 24.4192L19.5872 23.7582C19.5754 23.7459 19.5612 23.7361 19.5455 23.7293C19.5298 23.7225 19.5129 23.7189 19.4958 23.7188C19.4787 23.7186 19.4617 23.7218 19.4459 23.7283C19.43 23.7347 19.4156 23.7443 19.4035 23.7564C19.3914 23.7684 19.3818 23.7828 19.3753 23.7986C19.3689 23.8144 19.3656 23.8314 19.3657 23.8485C19.3658 23.8656 19.3693 23.8825 19.3761 23.8982C19.3828 23.9139 19.3926 23.9282 19.4049 23.9401L20.7056 25.2408L19.7686 26.1779L18.8057 25.2151L19.5491 24.4712C19.5611 24.4592 19.5706 24.445 19.5771 24.4293C19.5835 24.4137 19.5869 24.3969 19.5869 24.38C19.5869 24.3631 19.5835 24.3463 19.5771 24.3307C19.5706 24.315 19.5611 24.3008 19.5491 24.2888C19.5371 24.2768 19.5229 24.2673 19.5073 24.2609C19.4916 24.2544 19.4749 24.2511 19.4579 24.2511C19.441 24.2511 19.4242 24.2544 19.4086 24.2609C19.3929 24.2673 19.3787 24.2768 19.3668 24.2888L18.6131 25.0425C18.5647 25.0178 18.5064 25.0167 18.4663 25.0569C18.4256 25.0976 18.4266 25.1553 18.4518 25.2037L17.198 26.4576L16.9162 26.1758C16.9043 26.1635 16.8901 26.1537 16.8743 26.147C16.8586 26.1403 16.8417 26.1368 16.8246 26.1366C16.8075 26.1365 16.7906 26.1398 16.7747 26.1463C16.7589 26.1528 16.7445 26.1624 16.7325 26.1745C16.7204 26.1866 16.7109 26.201 16.7044 26.2168C16.698 26.2327 16.6947 26.2496 16.6949 26.2667C16.6951 26.2838 16.6986 26.3007 16.7054 26.3164C16.7122 26.3321 16.722 26.3463 16.7343 26.3582L17.0161 26.64L16.025 27.6311L15.8333 27.4395C15.8214 27.4275 15.8071 27.418 15.7915 27.4115C15.7758 27.4051 15.7591 27.4017 15.7421 27.4017C15.7252 27.4017 15.7084 27.4051 15.6928 27.4115C15.6772 27.418 15.6629 27.4275 15.651 27.4395C15.639 27.4515 15.6295 27.4657 15.623 27.4813C15.6165 27.497 15.6132 27.5137 15.6132 27.5307C15.6132 27.5476 15.6165 27.5644 15.623 27.58C15.6295 27.5957 15.639 27.6099 15.651 27.6218L15.8426 27.8135L14.9777 28.6784L14.461 28.1617C14.449 28.1498 14.4348 28.1403 14.4191 28.1338C14.4035 28.1273 14.3867 28.124 14.3698 28.124C14.3528 28.124 14.3361 28.1273 14.3204 28.1338C14.3048 28.1403 14.2906 28.1498 14.2786 28.1617C14.2666 28.1737 14.2571 28.1879 14.2506 28.2036C14.2442 28.2192 14.2408 28.236 14.2408 28.2529C14.2408 28.2698 14.2442 28.2866 14.2506 28.3023C14.2571 28.3179 14.2666 28.3321 14.2786 28.3441L14.7953 28.8608L14.1812 29.4748C5.28817 20.0002 2.23487 17.4893 1.44669 13.8292C0.86972 11.1514 1.93866 8.09245 4.10745 6.21782ZM22.5792 22.4523L23.9315 21.1L24.6991 21.8676L23.3468 23.2199L22.5792 22.4523ZM27.0775 21.2499C27.0791 21.2515 27.0817 21.251 27.0832 21.2525L25.7654 22.5703L25.0633 21.8681L26.379 20.5519L27.0775 21.2499Z" fill="#840D06"/>
<path id="Vector_2" d="M10.7129 16.4217C10.7129 16.4901 10.74 16.5556 10.7883 16.6039C10.8366 16.6522 10.9022 16.6793 10.9705 16.6793H14.1876C14.2334 16.6793 14.2785 16.667 14.318 16.6439C14.3576 16.6207 14.3903 16.5874 14.4127 16.5474C15.0263 15.4486 15.6151 14.409 16.2199 13.3324C16.4707 16.125 16.6681 18.9754 16.9349 21.7968C16.9404 21.8547 16.9653 21.909 17.0055 21.951C17.0458 21.9929 17.0991 22.02 17.1567 22.0278C17.2143 22.0356 17.2729 22.0237 17.3229 21.9941C17.3728 21.9644 17.4113 21.9186 17.432 21.8643C18.095 20.1185 18.7075 18.4406 19.3741 16.6788H22.429C22.4973 16.6788 22.5628 16.6517 22.6111 16.6034C22.6594 16.5551 22.6866 16.4895 22.6866 16.4212C22.6866 16.3529 22.6594 16.2874 22.6111 16.2391C22.5628 16.1908 22.4973 16.1637 22.429 16.1637H19.4148C19.2835 16.0426 19.0455 16.092 18.9847 16.2543C18.4319 17.7096 17.9662 18.9795 17.3465 20.6331C17.108 17.9378 16.9148 15.1828 16.6572 12.4587C16.6521 12.4039 16.6296 12.3522 16.5929 12.3112C16.5563 12.2701 16.5075 12.2419 16.4536 12.2306C16.3998 12.2193 16.3437 12.2256 16.2937 12.2484C16.2437 12.2713 16.2023 12.3096 16.1756 12.3577C15.4054 13.7352 14.7388 14.9093 14.0372 16.1642H10.9715C10.9376 16.164 10.904 16.1706 10.8726 16.1835C10.8413 16.1964 10.8127 16.2153 10.7887 16.2392C10.7647 16.2632 10.7456 16.2916 10.7326 16.3229C10.7196 16.3543 10.7129 16.3878 10.7129 16.4217ZM30.0584 15.956C30.0704 15.968 30.0846 15.9776 30.1002 15.984C30.1159 15.9905 30.1326 15.9939 30.1496 15.9939C30.1665 15.9939 30.1833 15.9905 30.1989 15.984C30.2146 15.9776 30.2288 15.968 30.2407 15.956L30.8131 15.3837L31.0665 15.6377C31.0785 15.6497 31.0927 15.6592 31.1084 15.6656C31.124 15.6721 31.1408 15.6755 31.1577 15.6755C31.1747 15.6755 31.1914 15.6721 31.2071 15.6656C31.2227 15.6592 31.2369 15.6497 31.2489 15.6377C31.2609 15.6257 31.2704 15.6115 31.2769 15.5958C31.2833 15.5802 31.2867 15.5634 31.2867 15.5465C31.2867 15.5296 31.2833 15.5128 31.2769 15.4972C31.2704 15.4815 31.2609 15.4673 31.2489 15.4553L30.9954 15.2019L31.6796 14.5177C31.7537 14.5919 31.829 14.5847 31.8789 14.5347C31.8909 14.5228 31.9004 14.5087 31.9069 14.4931C31.9134 14.4774 31.9167 14.4607 31.9167 14.4438C31.9167 14.4269 31.9134 14.4102 31.9069 14.3946C31.9004 14.379 31.8909 14.3648 31.8789 14.3529L31.8619 14.3359L32.0453 14.1525C32.0576 14.1406 32.0675 14.1264 32.0742 14.1107C32.081 14.095 32.0846 14.0781 32.0848 14.061C32.0849 14.0439 32.0817 14.027 32.0752 14.0111C32.0688 13.9953 32.0593 13.9809 32.0472 13.9688C32.0351 13.9567 32.0207 13.9471 32.0049 13.9406C31.9891 13.9341 31.9721 13.9308 31.955 13.931C31.9379 13.9311 31.921 13.9346 31.9053 13.9413C31.8896 13.9481 31.8754 13.9579 31.8635 13.9701L31.6801 14.1535L31.2767 13.7502L31.7744 13.252C31.7985 13.2278 31.8121 13.195 31.8121 13.1608C31.8121 13.1266 31.7985 13.0938 31.7744 13.0697C31.7502 13.0455 31.7174 13.0319 31.6832 13.0319C31.649 13.0319 31.6162 13.0455 31.592 13.0697L30.4545 14.2071C30.4426 14.2191 30.4331 14.2333 30.4266 14.2489C30.4201 14.2646 30.4168 14.2814 30.4168 14.2983C30.4168 14.3152 30.4201 14.332 30.4266 14.3476C30.4331 14.3633 30.4426 14.3775 30.4545 14.3895C30.4665 14.4014 30.4807 14.4109 30.4964 14.4174C30.512 14.4239 30.5288 14.4272 30.5457 14.4272C30.5627 14.4272 30.5794 14.4239 30.5951 14.4174C30.6107 14.4109 30.6249 14.4014 30.6369 14.3895L31.0944 13.932L31.4977 14.3354L30.8136 15.0195L30.2742 14.4796C30.2623 14.4676 30.248 14.4582 30.2324 14.4517C30.2168 14.4452 30.2 14.4419 30.1831 14.4419C30.1661 14.4419 30.1493 14.4452 30.1337 14.4517C30.1181 14.4582 30.1038 14.4676 30.0919 14.4796C30.0799 14.4916 30.0704 14.5058 30.0639 14.5215C30.0574 14.5371 30.0541 14.5539 30.0541 14.5708C30.0541 14.5877 30.0574 14.6045 30.0639 14.6202C30.0704 14.6358 30.0799 14.65 30.0919 14.662L30.6312 15.2019L30.0589 15.7742C30.0348 15.7983 30.0212 15.8309 30.0211 15.865C30.021 15.8991 30.0344 15.9318 30.0584 15.956ZM7.00587 12.3031L8.11087 11.1981L9.27408 12.3613C9.26584 12.402 9.27048 12.4443 9.3019 12.4757C9.3462 12.5195 9.37351 12.5123 9.41627 12.5035L9.49663 12.5844C9.5086 12.5964 9.52282 12.6059 9.53846 12.6123C9.55411 12.6188 9.57088 12.6222 9.58781 12.6222C9.60474 12.6222 9.62151 12.6188 9.63716 12.6123C9.6528 12.6059 9.66702 12.5964 9.67899 12.5844C9.69097 12.5724 9.70047 12.5582 9.70695 12.5425C9.71343 12.5269 9.71676 12.5101 9.71676 12.4932C9.71676 12.4763 9.71343 12.4595 9.70695 12.4439C9.70047 12.4282 9.69097 12.414 9.67899 12.402L9.6182 12.3412L10.07 11.8894L11.6747 13.4941C11.6866 13.5064 11.7008 13.5162 11.7165 13.5229C11.7323 13.5297 11.7492 13.5332 11.7663 13.5333C11.7834 13.5334 11.8003 13.5302 11.8161 13.5237C11.8319 13.5172 11.8463 13.5076 11.8584 13.4955C11.8705 13.4834 11.88 13.469 11.8865 13.4531C11.8929 13.4373 11.8961 13.4203 11.896 13.4032C11.8958 13.3861 11.8922 13.3692 11.8855 13.3535C11.8787 13.3378 11.8689 13.3236 11.8565 13.3118L10.2518 11.7071L10.7757 11.1832L11.6046 12.012C11.6165 12.0243 11.6308 12.0341 11.6465 12.0408C11.6622 12.0476 11.6791 12.0511 11.6962 12.0512C11.7133 12.0514 11.7303 12.0481 11.7461 12.0416C11.7619 12.0351 11.7763 12.0255 11.7883 12.0134C11.8004 12.0013 11.8099 11.9869 11.8164 11.971C11.8229 11.9552 11.8261 11.9382 11.8259 11.9211C11.8257 11.904 11.8222 11.8872 11.8154 11.8714C11.8086 11.8557 11.7988 11.8415 11.7865 11.8297L10.9576 11.0008L11.856 10.1024L12.8121 11.0585L11.5485 12.3222C11.5243 12.3464 11.5107 12.3792 11.5107 12.4134C11.5107 12.4476 11.5243 12.4804 11.5485 12.5045C11.5727 12.5287 11.6055 12.5423 11.6397 12.5423C11.6739 12.5423 11.7067 12.5287 11.7308 12.5045L12.9945 11.2409L13.6127 11.859C13.6369 11.8832 13.6697 11.8968 13.7039 11.8968C13.7381 11.8968 13.7709 11.8832 13.7951 11.859C13.8192 11.8349 13.8328 11.8021 13.8328 11.7679C13.8328 11.7337 13.8192 11.7009 13.7951 11.6767L13.1769 11.0585L13.5071 10.7283C13.5194 10.7164 13.5292 10.7022 13.536 10.6865C13.5428 10.6708 13.5463 10.6539 13.5465 10.6368C13.5467 10.6197 13.5435 10.6028 13.537 10.5869C13.5306 10.5711 13.521 10.5567 13.5089 10.5446C13.4969 10.5325 13.4825 10.5229 13.4667 10.5164C13.4509 10.5099 13.4339 10.5066 13.4168 10.5067C13.3997 10.5069 13.3828 10.5104 13.3671 10.5171C13.3514 10.5239 13.3371 10.5336 13.3252 10.5459L12.995 10.8761L12.0389 9.92002L12.3542 9.60475C12.3661 9.59277 12.3756 9.57856 12.3821 9.56291C12.3886 9.54727 12.3919 9.5305 12.3919 9.51356C12.3919 9.49663 12.3886 9.47986 12.3821 9.46422C12.3756 9.44857 12.3661 9.43436 12.3542 9.42238C12.3422 9.41041 12.328 9.40091 12.3123 9.39443C12.2967 9.38795 12.2799 9.38461 12.263 9.38461C12.2461 9.38461 12.2293 9.38795 12.2136 9.39443C12.198 9.40091 12.1838 9.41041 12.1718 9.42238L11.8565 9.73765L11.448 9.32914L12.1785 8.59865C12.1908 8.58679 12.2007 8.57259 12.2074 8.55689C12.2142 8.54119 12.2178 8.52429 12.2179 8.50719C12.2181 8.4901 12.2149 8.47313 12.2084 8.4573C12.202 8.44146 12.1924 8.42707 12.1804 8.41496C12.1683 8.40285 12.1539 8.39327 12.1381 8.38677C12.1223 8.38027 12.1053 8.37699 12.0882 8.37711C12.0711 8.37724 12.0542 8.38076 12.0385 8.38749C12.0228 8.39422 12.0086 8.40401 11.9967 8.41629L11.2657 9.14678L10.7139 8.59505L11.2646 8.04435C11.2888 8.02017 11.3024 7.98737 11.3024 7.95317C11.3024 7.91897 11.2888 7.88617 11.2646 7.86199C11.2527 7.85001 11.2384 7.84052 11.2228 7.83403C11.2071 7.82755 11.1904 7.82422 11.1734 7.82422C11.1392 7.82422 11.1064 7.8378 11.0823 7.86199L10.5316 8.41268L10.2621 8.14326C10.2503 8.13094 10.2361 8.12111 10.2204 8.11434C10.2047 8.10757 10.1878 8.104 10.1707 8.10382C10.1536 8.10365 10.1366 8.10689 10.1208 8.11334C10.1049 8.11979 10.0906 8.12934 10.0784 8.14141C10.0663 8.15348 10.0568 8.16785 10.0503 8.18367C10.0438 8.19948 10.0405 8.21644 10.0406 8.23354C10.0407 8.25064 10.0443 8.26754 10.051 8.28326C10.0577 8.29899 10.0675 8.31321 10.0798 8.32511L10.3492 8.59453L9.45078 9.49296L9.0232 9.06538C9.01134 9.05307 8.99714 9.04323 8.98144 9.03646C8.96574 9.02969 8.94884 9.02612 8.93175 9.02594C8.91465 9.02577 8.89768 9.02901 8.88185 9.03546C8.86601 9.04191 8.85162 9.05146 8.83951 9.06353C8.8274 9.07561 8.81782 9.08997 8.81132 9.10579C8.80482 9.12161 8.80154 9.13856 8.80166 9.15566C8.80179 9.17276 8.80531 9.18966 8.81204 9.20538C8.81877 9.22111 8.82856 9.23533 8.84084 9.24723L9.26842 9.67481L8.74451 10.1987L8.73472 10.1889C8.72275 10.177 8.70853 10.1675 8.69288 10.161C8.67724 10.1545 8.66047 10.1512 8.64354 10.1512C8.6266 10.1512 8.60984 10.1545 8.59419 10.161C8.57854 10.1675 8.56433 10.177 8.55236 10.1889C8.54038 10.2009 8.53088 10.2151 8.5244 10.2308C8.51792 10.2464 8.51459 10.2632 8.51459 10.2801C8.51459 10.297 8.51792 10.3138 8.5244 10.3295C8.53088 10.3451 8.54038 10.3593 8.55236 10.3713L8.56214 10.3811L8.11036 10.8329L7.12075 9.84326C7.10878 9.83129 7.09456 9.82179 7.07892 9.81531C7.06327 9.80883 7.0465 9.80549 7.02957 9.80549C7.01263 9.80549 6.99587 9.80883 6.98022 9.81531C6.96458 9.82179 6.95036 9.83129 6.93839 9.84326C6.92641 9.85523 6.91691 9.86945 6.91043 9.88509C6.90395 9.90074 6.90062 9.91751 6.90062 9.93444C6.90062 9.95138 6.90395 9.96814 6.91043 9.98379C6.91691 9.99943 6.92641 10.0136 6.93839 10.0256L7.92799 11.0152L6.82299 12.1202C6.811 12.1322 6.80148 12.1464 6.79499 12.1621C6.7885 12.1777 6.78516 12.1945 6.78516 12.2114C6.78516 12.2284 6.7885 12.2451 6.79499 12.2608C6.80148 12.2764 6.811 12.2906 6.82299 12.3026C6.83493 12.3147 6.84915 12.3243 6.86482 12.3309C6.8805 12.3375 6.89732 12.3409 6.91432 12.3409C6.93133 12.341 6.94817 12.3377 6.96388 12.3312C6.97959 12.3247 6.99386 12.3151 7.00587 12.3031ZM11.6752 9.92105L10.7768 10.8195L10.3683 10.411L11.2667 9.51253L11.6752 9.92105ZM10.5316 8.77741L11.0843 9.33017L10.1859 10.2286L9.63314 9.67584L10.5316 8.77741ZM9.45078 9.8582L10.0035 10.411L9.64808 10.7664C9.63611 10.7784 9.62661 10.7926 9.62013 10.8082C9.61365 10.8239 9.61031 10.8407 9.61031 10.8576C9.61031 10.8745 9.61365 10.8913 9.62013 10.9069C9.62661 10.9226 9.63611 10.9368 9.64808 10.9488C9.66006 10.9608 9.67427 10.9702 9.68992 10.9767C9.70556 10.9832 9.72233 10.9865 9.73927 10.9865C9.7562 10.9865 9.77297 10.9832 9.78861 10.9767C9.80426 10.9702 9.81847 10.9608 9.83045 10.9488L10.1859 10.5933L10.5944 11.0018L10.0705 11.5257L8.92687 10.3821L9.45078 9.8582ZM8.74502 10.564L9.88866 11.7076L9.43687 12.1594L8.29323 11.0157L8.74502 10.564Z" fill="#840D06"/>
</g>
</g>
</svg>
