<svg width="34" height="35" viewBox="0 0 34 35" fill="none" xmlns="http://www.w3.org/2000/svg">
<g id="Frame">
<g id="Group">
<path id="Vector" d="M31.9955 21.6736C32.5323 21.5871 33.186 21.261 33.4117 20.6031C33.6852 19.8185 33.1536 18.9639 32.4813 18.5909C32.0084 18.3287 31.519 18.2664 31.042 18.2211C31.4103 16.2233 31.8147 14.3677 32.1557 12.4915C32.1619 12.4576 32.1612 12.4228 32.1537 12.3892C32.1462 12.3555 32.132 12.3237 32.1119 12.2957C32.0919 12.2676 32.0664 12.2439 32.0371 12.2258C32.0077 12.2078 31.975 12.1959 31.9409 12.1907C30.2059 11.9269 28.4538 11.6354 26.7595 11.3536C26.729 11.3293 26.6935 11.3122 26.6554 11.3036C26.6118 11.2953 26.5667 11.2993 26.5251 11.3149C24.8656 11.0353 23.2042 10.7672 21.541 10.5108C21.5076 10.5057 21.4735 10.5072 21.4407 10.5153C21.4078 10.5234 21.3769 10.5378 21.3497 10.5579C21.3224 10.5779 21.2994 10.6032 21.282 10.6321C21.2645 10.6611 21.2529 10.6932 21.2479 10.7266C20.9843 12.4439 20.5616 14.133 19.9853 15.772C2.05902 11.6343 18.5573 15.4423 9.91714 13.4471L10.9825 9.93021C11.0979 9.54951 11.3379 8.75669 10.8964 8.20703C10.5971 7.83457 10.1263 7.73515 9.66935 7.66509L6.90866 7.24163C6.50993 7.18084 5.76811 7.06648 5.28026 7.50539C4.93666 7.81448 4.84496 8.28069 4.77799 8.62121L4.08459 12.1541C3.54998 12.058 3.01075 11.9896 2.46908 11.9491C1.04932 11.8491 0.515625 12.507 0.515625 13.1174C0.520261 13.7078 1.0009 14.1462 1.94466 14.4213C5.83779 15.564 9.75008 16.6405 13.6798 17.6503C11.8067 18.6002 10.7898 20.4918 10.7563 22.3181C10.7239 23.8336 11.3719 25.3533 12.4893 26.3826C13.3769 27.2043 14.1172 27.3614 15.1408 27.5535C15.983 27.7107 16.883 27.8796 17.7928 27.7957C19.6241 27.6251 21.319 26.3383 22.0103 24.594C22.6543 22.9682 22.4065 21.0214 21.4009 19.5532C31.3201 21.8874 31.4525 21.7601 31.9955 21.6736ZM30.9544 15.9626L30.4382 15.4464C30.4202 15.4284 30.396 15.4243 30.3733 15.4197C30.3857 15.4135 30.4001 15.4145 30.4104 15.4042L30.8101 15.005L31.0894 15.2842L31.0729 15.3697C31.0327 15.5675 30.994 15.7648 30.9544 15.9626ZM31.1687 14.4955L31.2305 14.5573C31.2022 14.6984 31.1764 14.8381 31.1481 14.9792L30.9915 14.8226L31.1594 14.6547C31.2037 14.6109 31.2022 14.5454 31.1687 14.4955ZM31.2903 14.2528L31.0899 14.0524L31.1197 14.0226C31.1317 14.0106 31.1412 13.9964 31.1477 13.9807C31.1542 13.9651 31.1575 13.9483 31.1575 13.9314C31.1575 13.9145 31.1542 13.8977 31.1477 13.882C31.1412 13.8664 31.1317 13.8522 31.1197 13.8402C31.1078 13.8282 31.0936 13.8187 31.0779 13.8123C31.0623 13.8058 31.0455 13.8024 31.0286 13.8024C31.0116 13.8024 30.9949 13.8058 30.9792 13.8123C30.9636 13.8187 30.9494 13.8282 30.9374 13.8402L30.8812 13.8964C30.864 13.8959 30.8469 13.899 30.831 13.9054C30.815 13.9117 30.8005 13.9213 30.7883 13.9334C30.7761 13.9455 30.7665 13.96 30.7601 13.976C30.7537 13.9919 30.7505 14.009 30.7509 14.0262L30.5356 14.241C30.5232 14.2529 30.5134 14.2671 30.5066 14.2828C30.4999 14.2985 30.4963 14.3154 30.4961 14.3325C30.496 14.3496 30.4992 14.3665 30.5056 14.3824C30.5121 14.3982 30.5216 14.4126 30.5337 14.4247C30.5458 14.4368 30.5602 14.4464 30.576 14.4529C30.5918 14.4594 30.6087 14.4627 30.6258 14.4625C30.6429 14.4624 30.6598 14.4589 30.6756 14.4522C30.6913 14.4454 30.7055 14.4356 30.7174 14.4234L30.9065 14.2343L31.1357 14.4641C31.0857 14.4306 31.0198 14.429 30.976 14.4733L30.8086 14.6408L30.7457 14.5779C30.7216 14.5537 30.6888 14.5401 30.6546 14.5401C30.6204 14.5401 30.5876 14.5537 30.5634 14.5779C30.5392 14.6021 30.5256 14.6349 30.5256 14.6691C30.5256 14.7033 30.5392 14.7361 30.5634 14.7603L30.6262 14.8231L30.2265 15.2224C30.2145 15.2343 30.205 15.2485 30.1985 15.2642C30.192 15.2798 30.1886 15.2966 30.1886 15.3135C30.1886 15.3305 30.192 15.3473 30.1985 15.3629C30.205 15.3785 30.2145 15.3928 30.2265 15.4047C30.2445 15.4228 30.2687 15.4264 30.2914 15.4315C30.279 15.4377 30.2646 15.4367 30.2543 15.447C30.2423 15.4589 30.2328 15.4731 30.2263 15.4887C30.2198 15.5043 30.2165 15.521 30.2165 15.5379C30.2165 15.5548 30.2198 15.5715 30.2263 15.5871C30.2328 15.6027 30.2423 15.6169 30.2543 15.6288L30.8292 16.2037C30.8483 16.2228 30.874 16.2279 30.8987 16.2326C30.77 16.8806 30.6437 17.5271 30.5258 18.1685C29.8927 18.0928 29.3801 17.9537 28.5594 17.7548C28.5641 17.7512 28.5708 17.7528 28.5754 17.7481C28.5874 17.7362 28.5969 17.722 28.6034 17.7063C28.6099 17.6907 28.6132 17.6739 28.6132 17.657C28.6132 17.64 28.6099 17.6233 28.6034 17.6076C28.5969 17.592 28.5874 17.5777 28.5754 17.5658L28.5285 17.5189C28.5383 17.5132 28.5502 17.5148 28.5584 17.5065L29.0277 17.0372L29.4342 17.4437L29.2729 17.6049C29.261 17.6169 29.2515 17.6311 29.245 17.6468C29.2385 17.6624 29.2352 17.6792 29.2352 17.6961C29.2352 17.7131 29.2385 17.7298 29.245 17.7455C29.2515 17.7611 29.261 17.7753 29.2729 17.7873C29.2849 17.7993 29.2991 17.8088 29.3148 17.8153C29.3304 17.8217 29.3472 17.8251 29.3641 17.8251C29.381 17.8251 29.3978 17.8217 29.4135 17.8153C29.4291 17.8088 29.4433 17.7993 29.4553 17.7873L29.6165 17.6261L30.0091 18.0186C30.021 18.0309 30.0352 18.0407 30.0509 18.0474C30.0666 18.0541 30.0835 18.0577 30.1007 18.0578C30.1178 18.0579 30.1347 18.0546 30.1505 18.0481C30.1663 18.0416 30.1807 18.032 30.1928 18.0199C30.2049 18.0078 30.2144 17.9934 30.2208 17.9776C30.2273 17.9618 30.2305 17.9448 30.2304 17.9277C30.2302 17.9106 30.2266 17.8937 30.2198 17.878C30.2131 17.8623 30.2032 17.8481 30.1909 17.8362L29.7984 17.4437L30.3171 16.9249L30.4696 17.0774C30.4815 17.0897 30.4957 17.0996 30.5114 17.1063C30.5271 17.1131 30.544 17.1167 30.5611 17.1169C30.5782 17.117 30.5951 17.1138 30.611 17.1073C30.6268 17.1009 30.6412 17.0913 30.6533 17.0793C30.6654 17.0672 30.675 17.0528 30.6815 17.037C30.688 17.0212 30.6913 17.0042 30.6912 16.9871C30.691 16.97 30.6875 16.9531 30.6808 16.9374C30.6741 16.9217 30.6643 16.9075 30.652 16.8956L30.4995 16.7431L30.5649 16.6777C30.5769 16.6657 30.5864 16.6515 30.5929 16.6358C30.5994 16.6202 30.6027 16.6034 30.6027 16.5865C30.6027 16.5695 30.5994 16.5528 30.5929 16.5371C30.5864 16.5215 30.5769 16.5073 30.5649 16.4953C30.553 16.4833 30.5387 16.4738 30.5231 16.4673C30.5074 16.4609 30.4907 16.4575 30.4737 16.4575C30.4568 16.4575 30.44 16.4609 30.4244 16.4673C30.4088 16.4738 30.3945 16.4833 30.3826 16.4953L30.3171 16.5607L29.9107 16.1543L29.9668 16.0981C29.9792 16.0863 29.989 16.0721 29.9958 16.0564C30.0025 16.0407 30.0061 16.0238 30.0063 16.0067C30.0064 15.9896 30.0032 15.9726 29.9968 15.9568C29.9903 15.9409 29.9808 15.9265 29.9687 15.9144C29.9566 15.9023 29.9422 15.8927 29.9264 15.8862C29.9106 15.8797 29.8937 15.8765 29.8766 15.8766C29.8595 15.8767 29.8426 15.8802 29.8268 15.887C29.8111 15.8937 29.7969 15.9035 29.785 15.9158L29.7288 15.9719L29.0911 15.3341C29.0792 15.3222 29.065 15.3127 29.0494 15.3062C29.0338 15.2997 29.0171 15.2964 29.0002 15.2964C28.9833 15.2964 28.9665 15.2997 28.9509 15.3062C28.9353 15.3127 28.9212 15.3222 28.9092 15.3341C28.8973 15.3461 28.8877 15.3602 28.8813 15.3758C28.8748 15.3914 28.8714 15.4082 28.8714 15.4251C28.8714 15.442 28.8748 15.4587 28.8813 15.4743C28.8877 15.4899 28.8973 15.5041 28.9092 15.516L29.547 16.1538L29.0282 16.6725L28.8392 16.4834C28.8272 16.4715 28.813 16.462 28.7973 16.4555C28.7817 16.449 28.7649 16.4457 28.748 16.4457C28.7311 16.4457 28.7143 16.449 28.6986 16.4555C28.683 16.462 28.6688 16.4715 28.6568 16.4834C28.6448 16.4954 28.6353 16.5096 28.6289 16.5253C28.6224 16.5409 28.619 16.5577 28.619 16.5746C28.619 16.5916 28.6224 16.6083 28.6289 16.624C28.6353 16.6396 28.6448 16.6538 28.6568 16.6658L28.8459 16.8549L28.3766 17.3242C28.3683 17.3324 28.3699 17.3443 28.3642 17.3541L28.0469 17.0367L28.8268 16.2568C28.851 16.2326 28.8646 16.1998 28.8646 16.1656C28.8646 16.1314 28.851 16.0986 28.8268 16.0744C28.8026 16.0502 28.7698 16.0367 28.7356 16.0367C28.7014 16.0367 28.6686 16.0502 28.6444 16.0744L27.8645 16.8544L27.745 16.7348C27.7331 16.7226 27.7189 16.7128 27.7031 16.706C27.6874 16.6993 27.6705 16.6958 27.6534 16.6957C27.6363 16.6955 27.6194 16.6988 27.6035 16.7053C27.5877 16.7118 27.5734 16.7214 27.5613 16.7335C27.5492 16.7456 27.5397 16.76 27.5332 16.7759C27.5268 16.7917 27.5235 16.8086 27.5237 16.8257C27.5239 16.8428 27.5275 16.8597 27.5342 16.8754C27.541 16.8911 27.5508 16.9053 27.5631 16.9172L27.6821 17.0367L27.2664 17.4524L27.2195 17.4416C27.2404 17.4177 27.2515 17.3867 27.2507 17.355C27.2498 17.3232 27.237 17.2929 27.2149 17.2701L26.9388 16.994L27.6924 16.2403C27.7166 16.2161 27.7302 16.1833 27.7302 16.1491C27.7302 16.1149 27.7166 16.0821 27.6924 16.0579C27.6683 16.0338 27.6355 16.0202 27.6013 16.0202C27.5671 16.0202 27.5343 16.0338 27.5101 16.0579L26.7564 16.8116L26.6513 16.7065C26.6271 16.6823 26.5943 16.6687 26.5601 16.6687C26.5259 16.6687 26.4931 16.6823 26.469 16.7065C26.4448 16.7307 26.4312 16.7635 26.4312 16.7977C26.4312 16.8319 26.4448 16.8647 26.469 16.8889L26.574 16.994L26.3314 17.2366L25.7421 17.1006L26.7981 11.8821C28.3964 12.1508 29.9964 12.4097 31.5978 12.659C31.504 13.1865 31.3954 13.7207 31.2903 14.2528ZM28.3508 17.7038L28.2802 17.6868L27.5647 17.5215L27.8666 17.2196L28.3508 17.7038ZM29.2121 16.8549L29.7309 16.3361L30.1374 16.7426L29.6186 17.2613L29.2121 16.8549ZM26.9656 17.3834L26.6307 17.3061L26.7595 17.1774L26.9656 17.3834ZM21.7167 11.0589C23.2498 11.2938 24.7896 11.5488 26.2923 11.7992L25.2429 16.9857L20.4891 15.8884C21.0387 14.3176 21.4495 12.7015 21.7167 11.0589ZM7.45781 12.8789C7.48631 12.8775 7.51343 12.8662 7.53456 12.847C7.54656 12.835 7.55607 12.8208 7.56257 12.8052C7.56906 12.7895 7.5724 12.7728 7.5724 12.7558C7.5724 12.7389 7.56906 12.7221 7.56257 12.7065C7.55607 12.6908 7.54656 12.6766 7.53456 12.6646L7.37641 12.5065L7.63502 12.2479L7.94669 12.5601C7.93741 12.6018 7.94102 12.6451 7.97347 12.677C7.98544 12.689 7.99966 12.6985 8.01531 12.7049C8.03095 12.7114 8.04773 12.7147 8.06466 12.7146C8.07393 12.7146 8.08166 12.7058 8.09093 12.7038L8.45411 13.067C8.46604 13.079 8.48024 13.0886 8.49589 13.0951C8.51154 13.1017 8.52833 13.105 8.54529 13.105C8.56225 13.105 8.57904 13.1017 8.59469 13.0951C8.61034 13.0886 8.62455 13.079 8.63647 13.067C8.65768 13.0444 8.66995 13.0149 8.67099 12.984C8.67253 12.984 8.67408 12.9861 8.67562 12.9861C8.69255 12.9861 8.70932 12.9829 8.72497 12.9764C8.74062 12.9699 8.75484 12.9605 8.76681 12.9485L9.08259 12.6327L9.43496 12.9856C9.45556 13.0062 9.48235 13.0124 9.50914 13.0165L9.41384 13.3318C8.76217 13.1803 8.10999 13.0299 7.45781 12.8789ZM5.81705 12.5034C5.68208 12.473 5.54917 12.4421 5.41369 12.4122L5.7135 12.1124L5.93862 12.3375L5.84899 12.4271C5.83002 12.4482 5.81876 12.4751 5.81705 12.5034ZM6.12872 12.5111C6.14881 12.5235 6.1689 12.5374 6.19208 12.5374C6.20901 12.5374 6.22578 12.5342 6.24143 12.5277C6.25708 12.5212 6.2713 12.5118 6.28326 12.4998C6.32602 12.457 6.32447 12.3952 6.29459 12.3458L6.57278 12.0676L7.0122 12.507L7.0019 12.5173C6.98992 12.5293 6.98042 12.5435 6.97394 12.5591C6.96746 12.5748 6.96413 12.5915 6.96413 12.6085C6.96413 12.6254 6.96746 12.6422 6.97394 12.6578C6.98042 12.6735 6.98992 12.6877 7.0019 12.6997C7.01387 12.7116 7.02809 12.7211 7.04373 12.7276C7.05938 12.7341 7.07615 12.7374 7.09308 12.7374C7.11001 12.7374 7.12678 12.7341 7.14243 12.7276C7.15807 12.7211 7.17229 12.7116 7.18426 12.6997L7.19456 12.6894L7.35272 12.848C7.36405 12.8594 7.38002 12.8588 7.39341 12.865C6.08647 12.5621 6.39659 12.6358 6.07772 12.5626L6.12872 12.5111ZM9.86047 11.8543C9.86253 11.8522 9.86202 11.8486 9.86356 11.8466L9.58384 12.7697L9.26444 12.4503L9.86047 11.8543ZM9.08259 12.268L8.82399 12.0094L9.28608 11.5473L9.5452 11.8059L9.08259 12.268ZM8.90023 12.4503L8.58444 12.7661C8.57156 12.779 8.57105 12.7975 8.56487 12.8135L8.29235 12.541L8.64162 12.1917L8.90023 12.4503ZM8.10999 12.3586L7.81738 12.0655L8.16717 11.7162L8.45978 12.0088L8.10999 12.3586ZM5.28335 8.72063C5.35187 8.37084 5.4245 8.06742 5.62438 7.88866C5.90669 7.63418 6.39556 7.68312 6.83035 7.7506L9.59105 8.17406C9.96247 8.23072 10.3112 8.3013 10.4946 8.52951C10.677 8.75566 10.661 9.08948 10.5791 9.44596L10.2587 9.12554C10.2468 9.11322 10.2326 9.10339 10.2169 9.09662C10.2012 9.08985 10.1843 9.08628 10.1672 9.0861C10.1501 9.08593 10.1332 9.08917 10.1173 9.09562C10.1015 9.10207 10.0871 9.11162 10.075 9.12369C10.0629 9.13576 10.0533 9.15013 10.0468 9.16595C10.0403 9.18177 10.037 9.19872 10.0371 9.21582C10.0373 9.23292 10.0408 9.24982 10.0475 9.26554C10.0542 9.28127 10.064 9.29549 10.0763 9.30739L10.4271 9.65821C10.4503 9.68094 10.4813 9.69386 10.5137 9.69427L10.489 9.78081L10.4246 9.99306L10.2494 9.8179C10.2762 9.76896 10.2772 9.70921 10.236 9.668C10.2127 9.64507 10.1814 9.632 10.1487 9.63152C10.116 9.63104 10.0843 9.64318 10.0604 9.66542C10.0181 9.65512 9.97381 9.65821 9.94032 9.69118C9.90787 9.72363 9.90426 9.7669 9.91353 9.80812L9.42053 10.3011C9.40854 10.3131 9.39902 10.3273 9.39253 10.3429C9.38604 10.3586 9.3827 10.3754 9.3827 10.3923C9.3827 10.4092 9.38604 10.426 9.39253 10.4417C9.39902 10.4573 9.40854 10.4715 9.42053 10.4835C9.43135 10.4943 9.44629 10.4933 9.45917 10.4994L9.93053 10.9708C9.94251 10.9828 9.95672 10.9923 9.97237 10.9988C9.98801 11.0052 10.0048 11.0086 10.0217 11.0086C10.0386 11.0086 10.0554 11.0052 10.0711 10.9988C10.0867 10.9923 10.1009 10.9828 10.1129 10.9708C10.1249 10.9588 10.1344 10.9446 10.1409 10.929C10.1473 10.9133 10.1507 10.8966 10.1507 10.8796C10.1507 10.8627 10.1473 10.8459 10.1409 10.8303C10.1344 10.8146 10.1249 10.8004 10.1129 10.7884L9.70541 10.381L10.0774 10.009L10.3282 10.2599C10.3324 10.264 10.338 10.2625 10.3427 10.2656L9.89293 11.7497C9.89154 11.7206 9.88007 11.693 9.86047 11.6714C9.82905 11.64 9.78784 11.6354 9.74714 11.6426L9.46793 11.3634L9.63175 11.1995C9.64372 11.1876 9.65322 11.1734 9.6597 11.1577C9.66618 11.1421 9.66951 11.1253 9.66951 11.1084C9.66951 11.0914 9.66618 11.0747 9.6597 11.059C9.65322 11.0434 9.64372 11.0292 9.63175 11.0172C9.61977 11.0052 9.60556 10.9957 9.58991 10.9892C9.57427 10.9827 9.5575 10.9794 9.54056 10.9794C9.52363 10.9794 9.50686 10.9827 9.49122 10.9892C9.47557 10.9957 9.46136 11.0052 9.44938 11.0172L9.28556 11.181L9.21808 11.1135C9.20611 11.1015 9.19189 11.092 9.17624 11.0856C9.1606 11.0791 9.14383 11.0757 9.1269 11.0757C9.10996 11.0757 9.0932 11.0791 9.07755 11.0856C9.06191 11.092 9.04769 11.1015 9.03572 11.1135C9.02374 11.1255 9.01424 11.1397 9.00776 11.1553C9.00128 11.171 8.99795 11.1878 8.99795 11.2047C8.99795 11.2216 9.00128 11.2384 9.00776 11.254C9.01424 11.2697 9.02374 11.2839 9.03572 11.2959L9.1032 11.3634L8.64111 11.8254L8.3485 11.5328L8.65553 11.2258C8.66751 11.2138 8.67701 11.1996 8.68349 11.184C8.68997 11.1683 8.6933 11.1516 8.6933 11.1346C8.6933 11.1177 8.68997 11.1009 8.68349 11.0853C8.67701 11.0696 8.66751 11.0554 8.65553 11.0434C8.64356 11.0315 8.62934 11.022 8.6137 11.0155C8.59805 11.009 8.58129 11.0057 8.56435 11.0057C8.54742 11.0057 8.53065 11.009 8.515 11.0155C8.49936 11.022 8.48514 11.0315 8.47317 11.0434L8.16614 11.3505L8.15532 11.3397C8.14342 11.3274 8.1292 11.3176 8.11348 11.3109C8.09775 11.3041 8.08085 11.3006 8.06375 11.3005C8.04665 11.3004 8.0297 11.3036 8.01388 11.3101C7.99806 11.3166 7.9837 11.3262 7.97162 11.3383C7.95955 11.3504 7.95001 11.3648 7.94355 11.3807C7.9371 11.3965 7.93386 11.4135 7.93404 11.4306C7.93421 11.4477 7.93778 11.4646 7.94456 11.4803C7.95133 11.496 7.96116 11.5102 7.97347 11.522L7.98429 11.5328L7.6345 11.8821L7.47687 11.7245C7.46489 11.7125 7.45068 11.703 7.43503 11.6965C7.41939 11.69 7.40262 11.6867 7.38569 11.6867C7.36875 11.6867 7.35198 11.69 7.33634 11.6965C7.32069 11.703 7.30648 11.7125 7.2945 11.7245C7.28253 11.7365 7.27303 11.7507 7.26655 11.7663C7.26007 11.782 7.25673 11.7987 7.25673 11.8157C7.25673 11.8326 7.26007 11.8494 7.26655 11.865C7.27303 11.8807 7.28253 11.8949 7.2945 11.9068L7.45214 12.0645L7.19353 12.3231L6.75462 11.8847L7.39908 11.2402C7.41105 11.2283 7.42055 11.214 7.42703 11.1984C7.43351 11.1828 7.43685 11.166 7.43685 11.1491C7.43685 11.1321 7.43351 11.1154 7.42703 11.0997C7.42055 11.0841 7.41105 11.0698 7.39908 11.0579C7.38711 11.0459 7.37289 11.0364 7.35724 11.0299C7.3416 11.0234 7.32483 11.0201 7.3079 11.0201C7.29096 11.0201 7.2742 11.0234 7.25855 11.0299C7.24291 11.0364 7.22869 11.0459 7.21672 11.0579L6.55372 11.7214C6.51199 11.7121 6.46872 11.7157 6.43626 11.7482C6.40381 11.7806 6.4002 11.8239 6.40947 11.8656L6.12047 12.1546L5.89535 11.9295L6.44347 11.3814C6.45545 11.3694 6.46495 11.3552 6.47143 11.3396C6.47791 11.3239 6.48124 11.3071 6.48124 11.2902C6.48124 11.2733 6.47791 11.2565 6.47143 11.2409C6.46495 11.2252 6.45545 11.211 6.44347 11.199C6.4315 11.1871 6.41728 11.1776 6.40164 11.1711C6.38599 11.1646 6.36923 11.1613 6.35229 11.1613C6.33536 11.1613 6.31859 11.1646 6.30294 11.1711C6.2873 11.1776 6.27308 11.1871 6.26111 11.199L5.71299 11.7471L5.66869 11.7028C5.65671 11.6909 5.6425 11.6814 5.62685 11.6749C5.61121 11.6684 5.59444 11.6651 5.5775 11.6651C5.56057 11.6651 5.5438 11.6684 5.52816 11.6749C5.51251 11.6814 5.4983 11.6909 5.48632 11.7028C5.47435 11.7148 5.46485 11.729 5.45837 11.7447C5.45189 11.7603 5.44855 11.7771 5.44855 11.794C5.44855 11.811 5.45189 11.8277 5.45837 11.8434C5.46485 11.859 5.47435 11.8732 5.48632 11.8852L5.53114 11.9295L5.19269 12.268C5.18073 12.2798 5.17124 12.294 5.16479 12.3095C5.15833 12.3251 5.15503 12.3418 5.15508 12.3586C4.96757 12.3185 4.7797 12.28 4.5915 12.2432L5.28335 8.72063ZM1.03078 13.1154C1.03078 12.5158 1.83081 12.4194 2.4325 12.4632C5.44047 12.6646 28.5548 18.5111 30.8647 18.7208C31.3505 18.7651 31.8095 18.8073 32.2309 19.0412C32.7064 19.3049 33.1067 19.9123 32.9248 20.4336L32.9243 20.4352C32.7729 20.8777 32.285 21.1049 31.9141 21.1641C30.9791 21.3161 21.8553 19.1334 20.8919 18.9052C19.3362 17.2531 16.7177 16.586 14.4587 17.3201C10.3157 16.2627 6.19199 15.1314 2.08941 13.9268C1.60878 13.7861 1.03438 13.5311 1.03078 13.1154ZM11.272 22.3284C11.376 16.5782 20.0162 15.7421 21.6404 21.2347L21.3159 20.9101L21.335 20.8911C21.3591 20.8669 21.3727 20.8341 21.3727 20.7999C21.3727 20.7657 21.3591 20.7329 21.335 20.7087C21.3108 20.6845 21.278 20.671 21.2438 20.671C21.2096 20.671 21.1768 20.6845 21.1526 20.7087L21.1335 20.7278L20.776 20.3703C20.764 20.3583 20.7498 20.3488 20.7342 20.3423C20.7185 20.3358 20.7018 20.3325 20.6848 20.3325C20.6679 20.3325 20.6511 20.3358 20.6355 20.3423C20.6198 20.3488 20.6056 20.3583 20.5937 20.3703C20.5817 20.3822 20.5722 20.3965 20.5657 20.4121C20.5592 20.4277 20.5559 20.4445 20.5559 20.4614C20.5559 20.4784 20.5592 20.4952 20.5657 20.5108C20.5722 20.5264 20.5817 20.5407 20.5937 20.5526L20.9512 20.9101L20.4602 21.4011L20.3964 21.3372C20.3722 21.313 20.3394 21.2994 20.3052 21.2994C20.271 21.2994 20.2382 21.313 20.214 21.3372C20.1898 21.3614 20.1762 21.3942 20.1762 21.4284C20.1762 21.4626 20.1898 21.4954 20.214 21.5196L20.2944 21.5999C20.281 21.6442 20.2825 21.6916 20.3175 21.7261C20.3706 21.7792 20.401 21.7627 20.4443 21.7493L20.8997 22.2047L20.029 23.0748L19.3264 22.3727C19.3144 22.3607 19.3002 22.3512 19.2845 22.3447C19.2689 22.3382 19.2521 22.3349 19.2352 22.3349C19.2183 22.3349 19.2015 22.3382 19.1859 22.3447C19.1702 22.3512 19.156 22.3607 19.144 22.3727C19.132 22.3846 19.1225 22.3989 19.1161 22.4145C19.1096 22.4301 19.1063 22.4469 19.1063 22.4638C19.1063 22.4808 19.1096 22.4975 19.1161 22.5132C19.1225 22.5288 19.132 22.5431 19.144 22.555L19.8467 23.2572L19.6963 23.4076C19.684 23.4195 19.6742 23.4337 19.6675 23.4494C19.6607 23.4652 19.6572 23.4821 19.6571 23.4992C19.657 23.5163 19.6602 23.5332 19.6667 23.549C19.6732 23.5649 19.6828 23.5792 19.6949 23.5913C19.707 23.6034 19.7214 23.6129 19.7373 23.6194C19.7531 23.6258 19.7701 23.6291 19.7872 23.6289C19.8043 23.6287 19.8212 23.6251 19.8369 23.6184C19.8526 23.6116 19.8668 23.6018 19.8786 23.5894L20.029 23.439L21.0897 24.4992L20.1501 25.4383L19.5211 24.8093L20.1893 24.1412C20.2016 24.1293 20.2114 24.1151 20.2182 24.0994C20.225 24.0837 20.2285 24.0668 20.2287 24.0497C20.2289 24.0326 20.2256 24.0157 20.2192 23.9998C20.2127 23.984 20.2032 23.9696 20.1911 23.9575C20.179 23.9454 20.1647 23.9358 20.1489 23.9293C20.133 23.9228 20.1161 23.9195 20.099 23.9196C20.0819 23.9198 20.065 23.9233 20.0493 23.93C20.0335 23.9367 20.0193 23.9465 20.0074 23.9588L19.3393 24.627L18.5722 23.8599L19.348 23.0846C19.36 23.0726 19.3695 23.0584 19.376 23.0428C19.3825 23.0271 19.3858 23.0104 19.3858 22.9934C19.3858 22.9765 19.3825 22.9597 19.376 22.9441C19.3695 22.9284 19.36 22.9142 19.348 22.9022C19.336 22.8903 19.3218 22.8808 19.3062 22.8743C19.2905 22.8678 19.2738 22.8645 19.2568 22.8645C19.2399 22.8645 19.2231 22.8678 19.2075 22.8743C19.1918 22.8808 19.1776 22.8903 19.1657 22.9022L18.3898 23.6781L17.9113 23.1995C17.8993 23.1875 17.8851 23.178 17.8694 23.1715C17.8538 23.165 17.837 23.1617 17.8201 23.1617C17.8031 23.1617 17.7864 23.165 17.7707 23.1715C17.7551 23.178 17.7409 23.1875 17.7289 23.1995C17.7169 23.2115 17.7074 23.2257 17.7009 23.2413C17.6945 23.257 17.6911 23.2737 17.6911 23.2907C17.6911 23.3076 17.6945 23.3244 17.7009 23.34C17.7074 23.3557 17.7169 23.3699 17.7289 23.3818L18.2075 23.8599L17.4064 24.661L16.6739 23.9284L17.6248 22.9774C17.6372 22.9656 17.647 22.9514 17.6538 22.9357C17.6605 22.92 17.6641 22.9031 17.6643 22.886C17.6644 22.8689 17.6612 22.8519 17.6548 22.8361C17.6483 22.8203 17.6388 22.8059 17.6267 22.7938C17.6146 22.7816 17.6002 22.7721 17.5844 22.7656C17.5686 22.7591 17.5517 22.7558 17.5346 22.7559C17.5175 22.756 17.5006 22.7596 17.4848 22.7663C17.4691 22.773 17.4549 22.7828 17.443 22.7951L16.492 23.7461L16.1515 23.4055C16.1396 23.3932 16.1254 23.3834 16.1097 23.3766C16.094 23.3699 16.0771 23.3663 16.06 23.3661C16.0429 23.3659 16.026 23.3692 16.0101 23.3756C15.9943 23.3821 15.9799 23.3916 15.9678 23.4037C15.9557 23.4158 15.9461 23.4301 15.9396 23.4459C15.9331 23.4618 15.9298 23.4787 15.93 23.4958C15.9301 23.5129 15.9336 23.5298 15.9403 23.5455C15.9471 23.5613 15.9569 23.5755 15.9691 23.5874L16.3097 23.9279L15.6116 24.6259L15.2412 24.2555L15.6477 23.8491C15.66 23.8372 15.6698 23.823 15.6766 23.8073C15.6834 23.7916 15.6869 23.7747 15.6871 23.7576C15.6873 23.7405 15.6841 23.7236 15.6776 23.7077C15.6712 23.6919 15.6616 23.6775 15.6495 23.6654C15.6375 23.6533 15.6231 23.6437 15.6073 23.6372C15.5915 23.6307 15.5745 23.6274 15.5574 23.6275C15.5403 23.6277 15.5234 23.6312 15.5077 23.6379C15.492 23.6446 15.4777 23.6544 15.4658 23.6667L15.0594 24.0732L15.048 24.0629C15.0361 24.0509 15.0219 24.0414 15.0062 24.0349C14.9906 24.0284 14.9738 24.0251 14.9569 24.0251C14.9399 24.0251 14.9232 24.0284 14.9075 24.0349C14.8919 24.0414 14.8777 24.0509 14.8657 24.0629C14.8537 24.0748 14.8442 24.0891 14.8377 24.1047C14.8313 24.1204 14.8279 24.1371 14.8279 24.1541C14.8279 24.171 14.8313 24.1878 14.8377 24.2034C14.8442 24.219 14.8537 24.2333 14.8657 24.2452L14.878 24.2576L14.094 25.0417L13.8745 24.8222C13.8626 24.8099 13.8484 24.8001 13.8327 24.7934C13.817 24.7867 13.8001 24.7832 13.783 24.783C13.7659 24.7829 13.7489 24.7862 13.7331 24.7927C13.7173 24.7992 13.7029 24.8088 13.6908 24.8209C13.6788 24.833 13.6692 24.8474 13.6628 24.8632C13.6563 24.879 13.6531 24.896 13.6532 24.9131C13.6534 24.9302 13.657 24.9471 13.6638 24.9628C13.6705 24.9785 13.6804 24.9927 13.6927 25.0046L13.9121 25.224L13.4212 25.715L12.8741 25.1679C12.8622 25.1556 12.848 25.1458 12.8323 25.1391C12.8165 25.1323 12.7996 25.1288 12.7825 25.1287C12.7654 25.1286 12.7485 25.1319 12.7327 25.1384C12.7169 25.1448 12.7025 25.1544 12.6904 25.1665C12.6783 25.1787 12.6688 25.193 12.6623 25.2089C12.6559 25.2247 12.6527 25.2417 12.6528 25.2588C12.653 25.2759 12.6566 25.2928 12.6633 25.3085C12.6701 25.3242 12.6799 25.3384 12.6923 25.3502L13.2394 25.8973L13.0014 26.1353C12.9478 26.09 12.8921 26.0539 12.8391 26.005C11.8284 25.0731 11.2426 23.6992 11.272 22.3284ZM19.3516 26.4187C19.3636 26.4307 19.3778 26.4402 19.3934 26.4467C19.4091 26.4532 19.4259 26.4565 19.4428 26.4565C19.4597 26.4565 19.4765 26.4532 19.4922 26.4467C19.5078 26.4402 19.522 26.4307 19.534 26.4187L20.1506 25.802L20.3562 26.0076C20.3727 26.0241 20.3948 26.0266 20.4154 26.0323C20.1271 26.3075 19.8051 26.5451 19.4572 26.7396C19.4304 26.669 18.5918 25.8458 18.5382 25.7922L19.3398 24.9912L19.9688 25.6197L19.3521 26.2363C19.3401 26.2482 19.3306 26.2624 19.324 26.278C19.3175 26.2937 19.3141 26.3104 19.314 26.3274C19.314 26.3443 19.3173 26.3611 19.3237 26.3768C19.3302 26.3924 19.3397 26.4067 19.3516 26.4187ZM16.7089 25.7237L17.4069 25.0257L18.174 25.7928L17.476 26.4908L16.7089 25.7237ZM16.5271 25.5419L15.795 24.8093L16.493 24.1113L17.2256 24.8438L16.5271 25.5419ZM17.5893 24.8438L18.3904 24.0428L19.1574 24.8098L18.3558 25.6109L17.5893 24.8438ZM13.9734 26.2667L13.603 25.8963L14.094 25.4054L14.4644 25.7758L13.9734 26.2667ZM14.2764 25.2235L15.0604 24.4394L15.4308 24.8098L14.6467 25.5939L14.2764 25.2235ZM17.7459 27.2826C16.9083 27.3609 16.0577 27.2007 15.2258 27.0456C14.1635 26.8452 13.7828 26.7236 13.2033 26.2966L13.4212 26.0787L13.8508 26.5083C13.8628 26.5203 13.8769 26.5298 13.8925 26.5363C13.9081 26.5428 13.9249 26.5461 13.9418 26.5461C13.9587 26.5461 13.9754 26.5428 13.991 26.5363C14.0066 26.5298 14.0208 26.5203 14.0327 26.5083C14.0394 26.5016 14.0378 26.4918 14.0425 26.4841C14.0837 26.4898 14.1115 26.4918 14.1501 26.4532L14.6457 25.9576L15.4365 26.7484C15.4484 26.7603 15.4627 26.7698 15.4783 26.7763C15.494 26.7828 15.5107 26.7861 15.5277 26.7861C15.5446 26.7861 15.5614 26.7828 15.577 26.7763C15.5926 26.7698 15.6069 26.7603 15.6188 26.7484C15.6308 26.7364 15.6403 26.7222 15.6468 26.7065C15.6533 26.6909 15.6566 26.6741 15.6566 26.6572C15.6566 26.6402 15.6533 26.6235 15.6468 26.6078C15.6403 26.5922 15.6308 26.578 15.6188 26.566L14.8276 25.7752L15.6116 24.9912L16.3442 25.7237L15.7275 26.3398C15.7156 26.3518 15.7061 26.366 15.6996 26.3817C15.6931 26.3973 15.6898 26.4141 15.6898 26.431C15.6898 26.448 15.6931 26.4647 15.6996 26.4804C15.7061 26.496 15.7156 26.5102 15.7275 26.5222C15.7395 26.5342 15.7537 26.5437 15.7694 26.5502C15.785 26.5566 15.8018 26.56 15.8187 26.56C15.8356 26.56 15.8524 26.5566 15.8681 26.5502C15.8837 26.5437 15.8979 26.5342 15.9099 26.5222L16.526 25.9056L17.5574 26.9369C17.5692 26.9492 17.5834 26.9591 17.5991 26.9658C17.6148 26.9726 17.6317 26.9762 17.6488 26.9763C17.6659 26.9765 17.6829 26.9733 17.6987 26.9668C17.7145 26.9604 17.7289 26.9508 17.741 26.9388C17.7532 26.9267 17.7627 26.9123 17.7692 26.8965C17.7757 26.8807 17.779 26.8637 17.7789 26.8466C17.7788 26.8295 17.7752 26.8126 17.7685 26.7969C17.7618 26.7812 17.752 26.767 17.7397 26.7551L17.6573 26.6726L18.3553 25.9746L19.23 26.8493C18.7623 27.0775 18.2621 27.2341 17.7459 27.2826ZM20.5633 25.8855C20.5576 25.8644 20.555 25.8417 20.5385 25.8252L20.333 25.6197L21.3288 24.6239C21.3453 24.6177 21.3638 24.6172 21.3772 24.6038C21.3906 24.5904 21.3911 24.5718 21.3973 24.5554L21.5158 24.4369C21.2938 24.9762 20.9704 25.4679 20.5633 25.8855ZM21.6435 24.0531C21.5987 24.0376 21.5498 24.0392 21.5137 24.0747L21.2721 24.3168L20.2119 23.2567L21.0825 22.3866L21.44 22.7441C21.452 22.7561 21.4662 22.7656 21.4819 22.772C21.4975 22.7785 21.5143 22.7819 21.5312 22.7819C21.5482 22.7819 21.5649 22.7785 21.5806 22.772C21.5962 22.7656 21.6104 22.7561 21.6224 22.7441C21.6344 22.7321 21.6439 22.7179 21.6504 22.7023C21.6568 22.6866 21.6602 22.6698 21.6602 22.6529C21.6602 22.636 21.6568 22.6192 21.6504 22.6036C21.6439 22.5879 21.6344 22.5737 21.6224 22.5617L21.2628 22.2021C21.3082 22.1517 21.3087 22.0749 21.2603 22.0265C21.2118 21.9781 21.1351 21.9786 21.0846 22.0239L20.6436 21.5829L21.1346 21.092L21.7543 21.7117C21.9075 22.4896 21.8695 23.2931 21.6435 24.0531Z" fill="#840D06"/>
<path id="Vector_2" d="M13.1545 20.8753L14.0601 19.9702L14.5536 20.4637L14.2487 20.7687L13.9303 20.4503C13.9183 20.4383 13.9041 20.4288 13.8885 20.4223C13.8728 20.4159 13.8561 20.4125 13.8391 20.4125C13.8222 20.4125 13.8054 20.4159 13.7898 20.4223C13.7741 20.4288 13.7599 20.4383 13.7479 20.4503C13.736 20.4623 13.7265 20.4765 13.72 20.4921C13.7135 20.5078 13.7102 20.5245 13.7102 20.5415C13.7102 20.5584 13.7135 20.5752 13.72 20.5908C13.7265 20.6065 13.736 20.6207 13.7479 20.6327L14.0663 20.951L13.7258 21.2915C13.7138 21.3035 13.7043 21.3177 13.6978 21.3334C13.6914 21.349 13.688 21.3658 13.688 21.3827C13.688 21.3997 13.6914 21.4164 13.6978 21.4321C13.7043 21.4477 13.7138 21.4619 13.7258 21.4739C13.7378 21.4859 13.752 21.4954 13.7676 21.5019C13.7833 21.5083 13.8 21.5117 13.817 21.5117C13.8339 21.5117 13.8507 21.5083 13.8663 21.5019C13.882 21.4954 13.8962 21.4859 13.9082 21.4739L14.2487 21.1334L14.5011 21.3858C14.5253 21.41 14.5581 21.4236 14.5923 21.4236C14.6265 21.4236 14.6593 21.41 14.6835 21.3858C14.7076 21.3616 14.7212 21.3288 14.7212 21.2946C14.7212 21.2604 14.7076 21.2276 14.6835 21.2035L14.431 20.951L14.736 20.6461L14.8447 20.7548C14.8566 20.7671 14.8708 20.7769 14.8865 20.7837C14.9022 20.7904 14.9191 20.794 14.9362 20.7942C14.9533 20.7944 14.9702 20.7911 14.9861 20.7847C15.0019 20.7782 15.0163 20.7687 15.0284 20.7566C15.0405 20.7445 15.0501 20.7302 15.0566 20.7143C15.0631 20.6985 15.0664 20.6816 15.0662 20.6645C15.0661 20.6474 15.0626 20.6305 15.0559 20.6148C15.0491 20.599 15.0394 20.5848 15.0271 20.5729L14.9184 20.4642L15.7148 19.6678C15.7271 19.6559 15.7369 19.6417 15.7437 19.626C15.7505 19.6103 15.7541 19.5934 15.7542 19.5763C15.7544 19.5592 15.7512 19.5423 15.7447 19.5264C15.7383 19.5106 15.7287 19.4962 15.7166 19.4841C15.7046 19.472 15.6902 19.4624 15.6744 19.4559C15.6586 19.4494 15.6416 19.4461 15.6245 19.4462C15.6074 19.4464 15.5905 19.4499 15.5748 19.4566C15.5591 19.4633 15.5448 19.4731 15.5329 19.4854L15.4346 19.5838C15.4284 19.5715 15.4294 19.5575 15.4196 19.5472L14.9524 19.0795L15.2934 18.7385C15.3054 18.7265 15.3149 18.7123 15.3214 18.6966C15.3278 18.681 15.3312 18.6642 15.3312 18.6473C15.3312 18.6303 15.3278 18.6136 15.3214 18.5979C15.3149 18.5823 15.3054 18.5681 15.2934 18.5561C15.2814 18.5441 15.2672 18.5346 15.2516 18.5281C15.2359 18.5217 15.2192 18.5183 15.2022 18.5183C15.1853 18.5183 15.1685 18.5217 15.1529 18.5281C15.1372 18.5346 15.123 18.5441 15.111 18.5561L14.77 18.8971L14.6175 18.7441C14.5933 18.7199 14.5605 18.7064 14.5263 18.7064C14.4921 18.7064 14.4593 18.7199 14.4352 18.7441C14.411 18.7683 14.3974 18.8011 14.3974 18.8353C14.3974 18.8695 14.411 18.9023 14.4352 18.9265L14.5876 19.079L14.0612 19.6055L13.7536 19.2979C13.7417 19.2856 13.7275 19.2758 13.7118 19.2691C13.696 19.2624 13.6791 19.2589 13.662 19.2587C13.6449 19.2586 13.628 19.2619 13.6122 19.2684C13.5964 19.2749 13.582 19.2845 13.5699 19.2966C13.5578 19.3087 13.5483 19.3231 13.5418 19.3389C13.5354 19.3547 13.5322 19.3717 13.5323 19.3888C13.5325 19.4059 13.5361 19.4228 13.5428 19.4385C13.5496 19.4542 13.5594 19.4684 13.5718 19.4803L13.8793 19.7878L12.9726 20.6935C12.9596 20.7051 12.949 20.7193 12.9417 20.7352C12.9343 20.7511 12.9302 20.7684 12.9297 20.7859C12.9292 20.8034 12.9323 20.8208 12.9388 20.8371C12.9453 20.8534 12.955 20.8681 12.9674 20.8805C12.9798 20.8929 12.9946 20.9027 13.0109 20.9091C13.0271 20.9156 13.0446 20.9187 13.0621 20.9182C13.0796 20.9177 13.0968 20.9137 13.1127 20.9063C13.1286 20.8989 13.1428 20.8884 13.1545 20.8753ZM14.7685 19.2613L15.2357 19.7291C15.246 19.7394 15.2604 19.7384 15.2723 19.744L14.7355 20.2813L14.2425 19.7878L14.7685 19.2613ZM23.8083 12.0095C23.5702 12.0064 23.332 12.0076 23.0938 12.0131C22.8599 12.0173 22.6266 12.0219 22.3896 12.0162C22.3618 12.0162 22.3347 12.025 22.3121 12.0413C22.2895 12.0575 22.2727 12.0805 22.2639 12.1069L21.8008 13.5931C21.7906 13.6258 21.7938 13.6611 21.8097 13.6914C21.8256 13.7217 21.8529 13.7444 21.8855 13.7546C21.9182 13.7648 21.9536 13.7616 21.9838 13.7457C22.0141 13.7298 22.0369 13.7025 22.047 13.6699L22.4818 12.2759C22.6884 12.2779 22.8939 12.2743 23.099 12.2707C23.3334 12.2666 23.5678 12.263 23.8037 12.2676H23.8063C23.84 12.2676 23.8724 12.2544 23.8964 12.2308C23.9205 12.2072 23.9344 12.1751 23.9351 12.1414C23.9355 12.1072 23.9224 12.0742 23.8987 12.0495C23.875 12.0248 23.8425 12.0105 23.8083 12.0095Z" fill="#840D06"/>
</g>
</g>
</svg>
