<svg width="60" height="60" viewBox="0 0 60 60" fill="none" xmlns="http://www.w3.org/2000/svg">
<path d="M45.314 49H14.6875" stroke="#840D06" stroke-width="1.5" stroke-miterlimit="10" stroke-linecap="round" stroke-linejoin="round"/>
<path d="M24.471 43.0225L23.3094 46.5367C22.8615 47.8916 21.1614 49 19.5312 49" stroke="#840D06" stroke-width="1.5" stroke-miterlimit="10" stroke-linecap="round" stroke-linejoin="round"/>
<path d="M35.5391 43.0225L36.7007 46.5367C37.1485 47.8916 38.8487 49 40.4788 49" stroke="#840D06" stroke-width="1.5" stroke-miterlimit="10" stroke-linecap="round" stroke-linejoin="round"/>
<path d="M51.5904 11H8.41698C6.78686 11 5.45312 12.1528 5.45312 13.5618V40.4607C5.45312 41.8696 6.78686 43.0225 8.41698 43.0225H51.5904C53.2205 43.0225 54.5543 41.8696 54.5543 40.4607V13.5618C54.5543 12.1528 53.2205 11 51.5904 11Z" stroke="#840D06" stroke-width="2" stroke-miterlimit="10" stroke-linecap="round" stroke-linejoin="round"/>
<path d="M8.41406 27.0112V37.8989H51.5875V13.5618H8.41406V27.0112Z" stroke="#840D06" stroke-width="1.5" stroke-miterlimit="10" stroke-linecap="round" stroke-linejoin="round"/>
<path d="M52.396 40.4584C52.396 40.6282 52.3179 40.7911 52.179 40.9112C52.04 41.0313 51.8515 41.0988 51.655 41.0988C51.4585 41.0988 51.27 41.0313 51.1311 40.9112C50.9921 40.7911 50.9141 40.6282 50.9141 40.4584C50.9141 40.2885 50.9921 40.1256 51.1311 40.0055C51.27 39.8854 51.4585 39.8179 51.655 39.8179C51.8515 39.8179 52.04 39.8854 52.179 40.0055C52.3179 40.1256 52.396 40.2885 52.396 40.4584Z" fill="#840D06"/>
<path d="M49.4351 40.4584C49.4351 40.6282 49.357 40.7911 49.218 40.9112C49.0791 41.0313 48.8906 41.0988 48.6941 41.0988C48.4976 41.0988 48.3091 41.0313 48.1701 40.9112C48.0312 40.7911 47.9531 40.6282 47.9531 40.4584C47.9531 40.2885 48.0312 40.1256 48.1701 40.0055C48.3091 39.8854 48.4976 39.8179 48.6941 39.8179C48.8906 39.8179 49.0791 39.8854 49.218 40.0055C49.357 40.1256 49.4351 40.2885 49.4351 40.4584Z" fill="#840D06"/>
</svg>
