<svg width="54" height="54" viewBox="0 0 54 54" fill="none" xmlns="http://www.w3.org/2000/svg">
<circle cx="27" cy="27" r="27" fill="#F9F9F8"/>
<path d="M23.9062 16.6259L23.844 19.6252" stroke="#292D32" stroke-width="1.5" stroke-miterlimit="10" stroke-linecap="round" stroke-linejoin="round"/>
<path d="M31.9023 16.7917L31.8401 19.7911" stroke="#292D32" stroke-width="1.5" stroke-miterlimit="10" stroke-linecap="round" stroke-linejoin="round"/>
<path d="M19.2617 23.621L36.2581 23.9736" stroke="#292D32" stroke-width="1.5" stroke-miterlimit="10" stroke-linecap="round" stroke-linejoin="round"/>
<path d="M36.7674 23.3941L36.5911 31.8923C36.5289 34.8917 34.9877 36.8601 31.4885 36.7875L23.4902 36.6216C19.9909 36.549 18.5327 34.5183 18.595 31.5189L18.7713 23.0208C18.8335 20.0214 20.3747 18.053 23.8739 18.1256L31.8722 18.2915C35.3715 18.3641 36.8296 20.3948 36.7674 23.3941Z" stroke="#292D32" stroke-width="1.5" stroke-miterlimit="10" stroke-linecap="round" stroke-linejoin="round"/>
<path d="M31.3551 28.4829L31.3641 28.4831" stroke="#292D32" stroke-width="1.5" stroke-linecap="round" stroke-linejoin="round"/>
<path d="M31.2926 31.4823L31.3016 31.4825" stroke="#292D32" stroke-width="1.5" stroke-linecap="round" stroke-linejoin="round"/>
<path d="M27.6598 28.4063L27.6688 28.4065" stroke="#292D32" stroke-width="1.5" stroke-linecap="round" stroke-linejoin="round"/>
<path d="M27.5973 31.4055L27.6063 31.4057" stroke="#292D32" stroke-width="1.5" stroke-linecap="round" stroke-linejoin="round"/>
<path d="M23.9567 28.3295L23.9657 28.3297" stroke="#292D32" stroke-width="1.5" stroke-linecap="round" stroke-linejoin="round"/>
<path d="M23.8942 31.3288L23.9032 31.3289" stroke="#292D32" stroke-width="1.5" stroke-linecap="round" stroke-linejoin="round"/>
</svg>
