<svg width="30" height="30" viewBox="0 0 30 30" fill="none" xmlns="http://www.w3.org/2000/svg">
<path d="M21.25 26.5625H8.75C4.1875 26.5625 1.5625 23.9375 1.5625 19.375V10.625C1.5625 6.0625 4.1875 3.4375 8.75 3.4375H21.25C25.8125 3.4375 28.4375 6.0625 28.4375 10.625V19.375C28.4375 23.9375 25.8125 26.5625 21.25 26.5625ZM8.75 5.3125C5.175 5.3125 3.4375 7.05 3.4375 10.625V19.375C3.4375 22.95 5.175 24.6875 8.75 24.6875H21.25C24.825 24.6875 26.5625 22.95 26.5625 19.375V10.625C26.5625 7.05 24.825 5.3125 21.25 5.3125H8.75Z" fill="#1A1A1A"/>
<path d="M15.0034 16.0875C13.9534 16.0875 12.8909 15.7625 12.0784 15.1L8.16588 11.975C7.76588 11.65 7.69089 11.0625 8.01589 10.6625C8.34089 10.2625 8.92839 10.1875 9.32839 10.5125L13.2409 13.6375C14.1909 14.4 15.8034 14.4 16.7534 13.6375L20.6659 10.5125C21.0659 10.1875 21.6659 10.25 21.9784 10.6625C22.3034 11.0625 22.2409 11.6625 21.8284 11.975L17.9159 15.1C17.1159 15.7625 16.0534 16.0875 15.0034 16.0875Z" fill="#1A1A1A"/>
</svg>
