<svg width="60" height="60" viewBox="0 0 60 60" fill="none" xmlns="http://www.w3.org/2000/svg">
<path d="M37.1959 41.4295L33.2287 40.2823V38.1677C34.3087 37.1697 34.9024 35.9665 34.9024 34.7599V33.1612C35.3578 32.7411 36.2779 31.8308 36.6495 31.0162C38.4104 27.1561 36.0151 24.5784 35.9123 24.4705C35.8426 24.3982 35.7587 24.3412 35.6658 24.3031C35.573 24.2651 35.4732 24.2468 35.3728 24.2495C35.2725 24.2522 35.1738 24.2758 35.0831 24.3188C34.9924 24.3617 34.9117 24.4231 34.846 24.499C34.8402 24.5058 34.2457 25.1706 33.689 25.0595C33.3282 24.9787 32.9733 24.8737 32.6266 24.745C31.7613 24.4476 30.6846 24.0774 28.8677 24.0774C24.6822 24.0774 23.3563 26.1553 22.9808 27.8984C22.3708 30.7307 24.2035 32.5662 24.9792 33.1992V34.7606C24.9792 35.9846 25.5872 37.2054 26.6917 38.2112V40.2866L22.7363 41.4304C21.957 41.6591 21.2725 42.1337 20.7849 42.7834C20.2974 43.4331 20.033 44.2229 20.0312 45.0352L20.0982 52.2879C20.0999 52.4774 20.1764 52.6585 20.311 52.7919C20.4456 52.9252 20.6275 53 20.8169 53H20.8238C20.9181 52.9992 21.0114 52.9797 21.0983 52.9428C21.1852 52.9059 21.2639 52.8522 21.33 52.7848C21.3962 52.7175 21.4484 52.6377 21.4837 52.5502C21.519 52.4627 21.5367 52.369 21.5359 52.2746L21.4689 45.0285C21.4705 44.5286 21.6336 44.0425 21.9339 43.6427C22.2343 43.243 22.6557 42.9511 23.1355 42.8104L26.9628 41.7037C27.4019 42.617 28.3644 43.6809 30.0745 43.6809C31.7829 43.6809 32.6509 42.6396 33.0164 41.7173L36.7966 42.8104C37.2772 42.9515 37.6993 43.2444 37.9998 43.6452C38.3002 44.0461 38.463 44.5333 38.4636 45.0343L38.5306 52.287C38.5323 52.4765 38.6088 52.6576 38.7434 52.791C38.878 52.9243 39.0598 52.9991 39.2493 52.9991H39.2561C39.3505 52.9983 39.4438 52.9788 39.5307 52.9419C39.6176 52.905 39.6963 52.8513 39.7624 52.7839C39.8286 52.7166 39.8808 52.6368 39.9161 52.5493C39.9514 52.4618 39.9691 52.3681 39.9682 52.2737L39.9013 45.0276C39.8984 44.2164 39.6334 43.4279 39.1459 42.7795C38.6584 42.1311 37.9744 41.6576 37.1959 41.4295ZM24.3859 28.2008C24.7698 26.4184 26.2777 25.5145 28.8676 25.5145C30.4442 25.5145 31.3161 25.8142 32.1593 26.1041C32.5666 26.2545 32.9839 26.3765 33.4081 26.4691C34.0078 26.5888 34.6431 26.4395 35.2445 26.0379L35.2668 26.0228C35.7192 26.8079 36.2785 28.3658 35.3417 30.4198C35.205 30.7192 34.9169 31.083 34.613 31.4163C34.4063 30.7387 34.0962 30.1495 33.6316 29.9499C33.47 29.881 33.2931 29.8557 33.1187 29.8765C32.9443 29.8974 32.7784 29.9637 32.6376 30.0688C31.7259 30.7151 31.2257 31.0173 29.8255 30.8234C29.0612 30.7225 28.3251 30.4684 27.6613 30.0764C27.5709 30.016 27.4681 29.9769 27.3605 29.9618C27.2529 29.9467 27.1433 29.9562 27.0399 29.9894C26.9365 30.0226 26.8419 30.0788 26.7632 30.1537C26.6845 30.2286 26.6237 30.3203 26.5855 30.422C26.5833 30.4279 26.3587 31.0133 25.7376 31.8236C25.7165 31.8511 25.6953 31.8773 25.6742 31.9021C25.0485 31.3271 23.989 30.0442 24.3859 28.2008ZM26.4164 33.1922C26.5861 33.0429 26.7408 32.8774 26.8785 32.6981C27.1347 32.3661 27.368 32.0171 27.5768 31.6534C28.2288 31.9481 28.9196 32.148 29.6282 32.2471C31.3058 32.4795 32.1714 32.117 33.1141 31.4865C33.2769 31.9432 33.3943 32.4148 33.4645 32.8946V34.7599C33.4645 36.6481 31.0949 38.2752 29.9316 38.2752C28.7741 38.2752 26.4162 36.6481 26.4162 34.7599L26.4164 33.1922ZM30.0742 42.2434C28.6937 42.2434 28.2472 41.1336 28.139 40.7748C28.1372 40.7472 28.1338 40.7197 28.1289 40.6924V39.212C28.7564 39.5318 29.3872 39.7127 29.9318 39.7127C30.4919 39.7127 31.1447 39.5212 31.7909 39.1846V40.777C31.7409 41.0521 31.6376 41.3149 31.4868 41.5503C31.1801 42.0167 30.7183 42.2434 30.0744 42.2434H30.0742Z" fill="#840D06"/>
<path d="M20.8798 34.3902C21.2469 34.4988 21.5691 34.7232 21.7983 35.0299C22.0275 35.3365 22.1515 35.7091 22.1518 36.0919L22.1417 39.5108C22.1415 39.6052 22.1598 39.6987 22.1957 39.786C22.2316 39.8733 22.2843 39.9527 22.3509 40.0196C22.4175 40.0865 22.4966 40.1397 22.5837 40.176C22.6708 40.2124 22.7643 40.2312 22.8586 40.2314H22.8604C23.0508 40.2314 23.2333 40.156 23.368 40.0216C23.5028 39.8872 23.5787 39.7048 23.5792 39.5145L23.5893 36.0957C23.5887 35.4015 23.3639 34.7261 22.9483 34.1702C22.5326 33.6142 21.9485 33.2074 21.2829 33.0104L18.119 32.0862L18.1233 30.5021C19.0136 29.6675 19.5033 28.6618 19.506 27.6499L19.5094 26.3921C19.9029 26.0269 20.6324 25.2953 20.9379 24.6312C22.4285 21.3862 20.41 19.202 20.3234 19.1106C20.2546 19.0372 20.171 18.9791 20.0783 18.9402C19.9855 18.9013 19.8855 18.8824 19.7849 18.8847C19.6844 18.8871 19.5854 18.9106 19.4945 18.9538C19.4037 18.997 19.323 19.0589 19.2576 19.1355C19.1158 19.2972 18.7265 19.6116 18.4279 19.552C18.1373 19.4858 17.8515 19.4002 17.5725 19.2957C16.8537 19.0463 15.9584 18.7359 14.4444 18.7318H14.4174C11.6835 18.7318 9.92817 19.8772 9.47392 21.9586C8.96424 24.2945 10.4218 25.8318 11.1008 26.4037L11.0976 27.6274C11.0949 28.6538 11.5911 29.6759 12.4965 30.5222L12.4923 32.074L9.3334 32.9782C8.66661 33.1717 8.08018 33.5755 7.66152 34.1293C7.24287 34.6832 7.01439 35.3576 7.01015 36.0518L7 44.6558C6.99979 44.8464 7.07529 45.0293 7.20991 45.1642C7.34453 45.2991 7.52724 45.3751 7.71785 45.3753H7.71874C7.90923 45.3753 8.09192 45.2997 8.22669 45.1651C8.36146 45.0305 8.43728 44.8479 8.43749 44.6574L8.44764 36.0546C8.45006 35.6718 8.5761 35.3 8.80698 34.9946C9.03786 34.6892 9.36122 34.4666 9.72889 34.3599L12.7731 33.4884C13.1684 34.2499 13.9836 35.0915 15.3913 35.0953H15.4011C16.8011 35.0953 17.5463 34.2798 17.8865 33.5157L20.8798 34.3902ZM13.5665 29.5532C12.9095 28.9732 12.5333 28.2725 12.5355 27.6306L12.5389 26.4005C12.6679 26.2828 12.7863 26.1541 12.8929 26.0158C13.0838 25.7694 13.2599 25.5118 13.4202 25.2444C13.9352 25.4675 14.4776 25.6208 15.0332 25.7001C16.3654 25.8888 17.1141 25.617 17.8501 25.1521C17.949 25.4701 18.0235 25.7952 18.073 26.1245L18.0689 27.6458C18.065 29.0997 16.1768 30.3996 15.2875 30.3978C14.9062 30.3969 14.1926 30.1064 13.5661 29.5532H13.5665ZM10.8786 22.2653C10.9919 21.7463 11.3356 20.1696 14.4157 20.1696H14.4404C15.7142 20.173 16.4194 20.4175 17.1014 20.654C17.441 20.7805 17.7891 20.8831 18.143 20.9613C18.6658 21.0555 19.2049 20.9466 19.6501 20.6567C19.9891 21.3101 20.3362 22.4972 19.6316 24.0314C19.5146 24.2543 19.3697 24.4614 19.2003 24.6477C18.998 24.0803 18.7287 23.7218 18.395 23.5774C18.2423 23.5114 18.0749 23.4867 17.9096 23.5057C17.7444 23.5247 17.587 23.5868 17.4532 23.6858C16.731 24.195 16.3347 24.4328 15.2341 24.2771C14.6258 24.1951 14.0402 23.9919 13.5118 23.6795C13.422 23.6179 13.3193 23.5776 13.2115 23.5616C13.1038 23.5457 12.9938 23.5546 12.89 23.5876C12.7862 23.6206 12.6913 23.6769 12.6126 23.7521C12.5338 23.8274 12.4732 23.9196 12.4355 24.0218C12.2665 24.404 12.0498 24.7632 11.7905 25.0909C11.2945 24.5977 10.5827 23.6213 10.8786 22.2653ZM15.4003 33.658H15.3951C14.3614 33.6552 14.0205 32.8273 13.9351 32.55C13.9335 32.5331 13.9313 32.5163 13.9286 32.4995L13.9313 31.496C14.3533 31.7026 14.814 31.8183 15.2835 31.8354H15.2894C15.7738 31.8182 16.2491 31.698 16.6835 31.4829L16.6805 32.578C16.6402 32.8223 16.4289 33.658 15.4003 33.658ZM50.6931 33.0104L48.1447 32.2659H50.0537C50.2443 32.2659 50.4271 32.1902 50.5619 32.0554C50.6967 31.9206 50.7724 31.7378 50.7724 31.5472V25.4861C50.7724 23.8803 50.1345 22.3402 48.999 21.2047C47.8635 20.0692 46.3235 19.4313 44.7176 19.4313C43.1118 19.4313 41.5718 20.0692 40.4363 21.2047C39.3008 22.3402 38.6629 23.8803 38.6629 25.4861V31.5472C38.6629 31.7378 38.7386 31.9206 38.8734 32.0554C39.0082 32.1902 39.191 32.2659 39.3816 32.2659H41.2312L38.7435 32.978C38.0769 33.1714 37.4906 33.575 37.072 34.1287C36.6534 34.6824 36.4249 35.3565 36.4205 36.0506L36.4104 39.5106C36.4099 39.7012 36.4852 39.8842 36.6196 40.0193C36.754 40.1545 36.9366 40.2307 37.1273 40.2312H37.1291C37.3195 40.2312 37.502 40.1557 37.6367 40.0213C37.7715 39.8869 37.8474 39.7045 37.8479 39.5142L37.8579 36.0544C37.8603 35.6715 37.9864 35.2997 38.2173 34.9943C38.4481 34.6889 38.7715 34.4663 39.1392 34.3597L42.2778 33.4612C42.5538 34.2759 43.2958 35.0951 44.7297 35.0951C45.7061 35.0951 46.2879 34.7128 46.604 34.3921C46.8563 34.1329 47.0451 33.8187 47.1554 33.4742L50.2901 34.3898C50.6574 34.4986 50.9797 34.7232 51.2089 35.0301C51.4382 35.337 51.5621 35.7098 51.5622 36.0929L51.552 44.6967C51.5519 44.7911 51.5704 44.8846 51.6064 44.9718C51.6424 45.0591 51.6952 45.1384 51.7619 45.2052C51.8285 45.272 51.9077 45.3251 51.9949 45.3613C52.082 45.3975 52.1755 45.4163 52.2699 45.4164H52.2707C52.4612 45.4164 52.6439 45.3408 52.7787 45.2061C52.9135 45.0715 52.9893 44.8889 52.9895 44.6984L52.9996 36.0957C52.999 35.4015 52.7742 34.7261 52.3585 34.1702C51.9429 33.6142 51.3587 33.2074 50.6931 33.0104ZM42.2825 28.1409V26.6751C42.2825 26.67 42.3011 26.1496 42.5994 25.8546C42.8654 25.5916 43.0815 25.3563 43.2571 25.1475C43.633 25.622 44.1038 26.0129 44.6394 26.2952C45.4351 26.7169 46.279 27.0403 47.1527 27.2584V28.1415C47.152 28.7854 46.8959 29.4027 46.4407 29.858C45.9854 30.3133 45.3681 30.5694 44.7242 30.5702H44.7111C44.0672 30.5694 43.4498 30.3133 42.9945 29.8579C42.5392 29.4026 42.2832 28.7852 42.2825 28.1413V28.1409ZM40.1003 25.4858C40.1079 24.2662 40.5978 23.0991 41.4629 22.2394C42.3279 21.3797 43.498 20.8972 44.7176 20.8972C45.9373 20.8972 47.1073 21.3797 47.9724 22.2394C48.8375 23.0991 49.3273 24.2662 49.3349 25.4858V30.8281H47.4997C48.1994 30.1086 48.5907 29.1445 48.5902 28.1409V26.6751C48.5902 26.5026 48.5282 26.3359 48.4155 26.2054C48.3027 26.0748 48.1468 25.9892 47.9762 25.9641C47.0465 25.7903 46.1492 25.4741 45.3159 25.0268C44.2656 24.4667 44.0059 23.6015 43.9976 23.573C43.9157 23.2285 43.6042 22.9559 43.2514 22.9832C43.0895 22.9881 42.9347 23.0512 42.8155 23.1608C42.6962 23.2705 42.6204 23.4194 42.6019 23.5804C42.5555 23.6812 42.3381 24.0915 41.5887 24.8325C40.8659 25.5473 40.845 26.5618 40.845 26.6751V28.1415C40.8446 29.1451 41.2358 30.1092 41.9355 30.8287H40.1003V25.4858ZM45.8494 32.7127C45.8444 33.0015 45.7231 33.6576 44.7297 33.6576C43.7234 33.6576 43.5942 32.9899 43.5858 32.6994V31.8395C43.9505 31.9507 44.3298 32.0072 44.7111 32.007H44.7242C45.1055 32.0072 45.4848 31.9507 45.8495 31.8395V32.7056C45.8495 32.7142 45.8492 32.7091 45.8494 32.7131V32.7127Z" fill="#840D06"/>
<path d="M22.3623 25.4937H22.3828C22.5699 25.4937 22.7495 25.4207 22.8836 25.2902C23.0177 25.1598 23.0957 24.9823 23.1009 24.7953L23.1112 24.4352V24.4168C23.1132 24.032 23.2393 23.6581 23.4708 23.3507C23.7022 23.0433 24.0267 22.8188 24.3959 22.7105L27.5125 21.8521C27.6291 22.1725 27.8126 22.4645 28.0508 22.7086C28.5286 23.1933 29.1849 23.439 30.0017 23.439C31.4212 23.439 32.1889 22.6688 32.5077 21.865L35.6199 22.7389C35.9085 22.8222 36.1712 22.9775 36.3833 23.1901C36.5955 23.4027 36.7501 23.6657 36.8328 23.9545C36.8858 24.1376 37.0093 24.2922 37.1762 24.3843C37.3431 24.4763 37.5398 24.4983 37.7229 24.4454C37.906 24.3924 38.0606 24.2689 38.1527 24.102C38.2448 23.9351 38.2667 23.7384 38.2138 23.5553C38.0815 23.0937 37.847 22.6678 37.5277 22.3091C37.2084 21.9504 36.8125 21.6682 36.3693 21.4832V13.3306C36.363 11.6494 35.6907 10.0393 34.4997 8.85275C33.3087 7.66622 31.696 7 30.0149 7C28.3337 7 26.721 7.66622 25.53 8.85275C24.339 10.0393 23.6667 11.6494 23.6604 13.3306V21.4489C23.0768 21.6934 22.5777 22.1035 22.2247 22.6286C21.8718 23.1537 21.6804 23.7707 21.6744 24.4034L21.6644 24.755C21.659 24.9455 21.7295 25.1303 21.8603 25.2689C21.9912 25.4074 22.1717 25.4883 22.3623 25.4937ZM32.6267 16.135C32.626 16.8258 32.3512 17.488 31.8628 17.9765C31.3743 18.4649 30.7121 18.7397 30.0213 18.7404H30.0074C29.3166 18.7397 28.6543 18.4649 28.1659 17.9765C27.6774 17.488 27.4027 16.8258 27.4019 16.135V15.1705C28.3325 14.9411 29.2314 14.5981 30.0782 14.1492C30.6538 13.8461 31.1577 13.4231 31.5561 12.9088C31.746 13.1375 31.9835 13.3975 32.2799 13.6904C32.5564 13.9637 32.624 14.4337 32.6267 14.5858V16.135ZM31.0954 21.4884C30.9027 21.8338 30.5451 22.0018 30.0018 22.0018C28.908 22.0018 28.7821 21.2718 28.7787 20.9664C28.7788 20.9629 28.7788 20.9595 28.7787 20.956V19.9862C29.1759 20.1133 29.5904 20.1779 30.0074 20.1777H30.0214C30.4384 20.1779 30.853 20.1133 31.2502 19.9862V20.956C31.2365 21.1424 31.1838 21.3238 31.0954 21.4884ZM30.0145 8.43695C31.3151 8.43535 32.5631 8.94968 33.4849 9.8671C34.4067 10.7845 34.9269 12.0301 34.9315 13.3306V21.0527L32.6881 20.4226V19.17C33.1205 18.7914 33.4671 18.3247 33.7045 17.8013C33.9419 17.2779 34.0646 16.7097 34.0646 16.135V14.5862C34.0646 14.4682 34.0429 13.4121 33.291 12.6687C32.4833 11.8698 32.2561 11.4311 32.21 11.3285C32.1906 11.1694 32.1151 11.0225 31.9971 10.9141C31.879 10.8057 31.7262 10.743 31.566 10.7373C31.2173 10.7074 30.9053 10.9739 30.8165 11.3123C30.8053 11.3515 30.5279 12.2803 29.4021 12.8806C28.517 13.3536 27.5649 13.6889 26.5788 13.8751C26.4081 13.9002 26.2522 13.9858 26.1394 14.1164C26.0267 14.2469 25.9647 14.4137 25.9647 14.5862V16.135C25.9646 16.7097 26.0874 17.2779 26.3248 17.8013C26.5622 18.3247 26.9087 18.7914 27.3412 19.17V20.4085L25.0974 21.0266V13.3306C25.102 12.0301 25.6223 10.7845 26.5441 9.86703C27.4659 8.94961 28.714 8.4353 30.0145 8.43695Z" fill="#840D06"/>
</svg>
