<svg width="35" height="35" viewBox="0 0 35 35" fill="none" xmlns="http://www.w3.org/2000/svg">
<g clip-path="url(#clip0_3043_46233)">
<g clip-path="url(#clip1_3043_46233)">
<path d="M29.9533 21.874L30.4736 22.3943L30.8548 22.0131C30.8754 21.9925 30.9012 21.9874 30.927 21.9822L30.3551 21.4155C30.3036 21.364 30.3036 21.2816 30.3551 21.2301C30.4066 21.1837 30.4891 21.1837 30.5406 21.2301L31.1382 21.8328C31.1897 21.8843 31.1897 21.9668 31.1382 22.0131C31.1176 22.0389 31.0867 22.0492 31.0557 22.0492C31.0763 22.1007 31.0763 22.1574 31.0403 22.1934L30.6385 22.5952C30.6436 22.6364 30.6385 22.6777 30.6076 22.7086C30.5818 22.7343 30.5509 22.7498 30.52 22.7498C30.5097 22.7498 30.5045 22.7395 30.4942 22.7395L30.1182 23.1155C30.0718 23.1619 29.9894 23.1619 29.9379 23.1155C29.8863 23.064 29.8863 22.9816 29.9379 22.9301L30.2933 22.5746L29.773 22.0543C29.7215 22.0028 29.7215 21.9204 29.773 21.874C29.8245 21.8225 29.9018 21.8225 29.9533 21.874Z" fill="#840D06"/>
<path d="M28.8885 23.2595L28.7958 23.1668C28.7494 23.1204 28.7494 23.038 28.7958 22.9865C28.8473 22.9349 28.9297 22.9349 28.9812 22.9865L29.0688 23.074L29.6664 22.4816C29.7179 22.4301 29.8003 22.4301 29.8467 22.4816C29.8982 22.5331 29.8982 22.6104 29.8467 22.6619L29.2543 23.2595L29.6509 23.6562C29.7025 23.7077 29.7025 23.7901 29.6509 23.8365C29.5994 23.888 29.517 23.888 29.4655 23.8365L29.0688 23.4398L29.007 23.5016C28.9606 23.5531 28.8782 23.5531 28.8267 23.5016C28.7752 23.4501 28.7752 23.3728 28.8267 23.3213L28.8885 23.2595ZM23.8297 24.5165C23.8658 24.4546 23.9482 24.434 24.0049 24.4753L24.2625 24.6298L24.7261 23.9601L24.4479 23.7334C24.3912 23.6871 24.3809 23.6098 24.4273 23.5531C24.4737 23.4965 24.5561 23.4913 24.6076 23.5325L24.8755 23.7489L25.4525 22.9195C25.3339 22.8277 25.2018 22.7547 25.0609 22.7031C24.994 22.6774 24.9631 22.6001 24.9888 22.5331C25.0146 22.4662 25.0867 22.4353 25.1537 22.461C25.3134 22.5228 25.4628 22.6052 25.5967 22.7083L26.0912 22.0025C25.9701 21.9201 25.8384 21.8542 25.6997 21.8068C25.6838 21.8011 25.6691 21.7924 25.6565 21.781C25.6439 21.7696 25.6338 21.7559 25.6266 21.7405C25.6194 21.7252 25.6153 21.7086 25.6146 21.6916C25.6139 21.6747 25.6166 21.6578 25.6225 21.6419C25.6431 21.5749 25.7152 21.5389 25.7822 21.5595C25.9418 21.6162 26.0964 21.6934 26.2355 21.7913L26.8022 20.9825C26.8434 20.9207 26.9206 20.9104 26.9825 20.9465C27.0391 20.9877 27.0546 21.0701 27.0134 21.1268L26.4364 21.9562C26.5034 22.018 26.5652 22.0849 26.6218 22.1571C26.6682 22.2137 26.6579 22.2962 26.6012 22.3374C26.5446 22.3837 26.4622 22.3734 26.4209 22.3168C26.3797 22.2652 26.3334 22.2137 26.287 22.1674L25.7976 22.8731C25.8646 22.9401 25.9315 23.0122 25.9882 23.0895C26.0294 23.1462 26.0191 23.2286 25.9625 23.2698C25.9058 23.311 25.8234 23.3007 25.7822 23.244C25.7409 23.1874 25.6946 23.1359 25.6482 23.0895L25.0712 23.9137L25.2618 24.0683C25.3185 24.1146 25.3237 24.1971 25.2825 24.2537C25.2361 24.3053 25.1537 24.3156 25.097 24.2692L24.9219 24.1249L24.4788 24.7637L24.6179 24.8513C24.6797 24.8874 24.7003 24.9698 24.6643 25.0265C24.6553 25.0412 24.6435 25.054 24.6295 25.0641C24.6155 25.0742 24.5997 25.0814 24.5828 25.0852C24.566 25.0891 24.5486 25.0895 24.5316 25.0865C24.5146 25.0835 24.4984 25.0771 24.484 25.0677L24.3346 24.9749L23.6031 26.0259C23.5618 26.0825 23.4794 26.098 23.4228 26.0568C23.3661 26.0156 23.3506 25.9331 23.3918 25.8765L24.1131 24.841L23.8709 24.6916C23.8091 24.6556 23.7937 24.5783 23.8297 24.5165ZM21.7125 11.8334C21.8567 11.8334 21.97 11.9519 21.97 12.091C21.97 12.2352 21.8567 12.3486 21.7125 12.3486H14.5982C14.4591 12.3486 14.3406 12.2352 14.3406 12.091C14.3406 11.9519 14.4591 11.8334 14.5982 11.8334H21.7125ZM21.4343 19.6174C21.5785 19.6174 21.6918 19.7307 21.6918 19.8749C21.6918 20.014 21.5785 20.1325 21.4343 20.1325H14.7115C14.5673 20.1325 14.454 20.014 14.454 19.8749C14.454 19.7307 14.5673 19.6174 14.7115 19.6174H21.4343ZM21.0582 22.7856C21.1973 22.7856 21.3158 22.8989 21.3158 23.0431C21.3158 23.1822 21.1973 23.3007 21.0582 23.3007H13.7637C13.6246 23.3007 13.5061 23.1822 13.5061 23.0431C13.5061 22.8989 13.6246 22.7856 13.7637 22.7856H21.0582ZM19.827 14.9501C19.9712 14.9501 20.0846 15.0634 20.0846 15.2077C20.0846 15.3468 19.9712 15.4652 19.827 15.4652H13.9852C13.8461 15.4652 13.7276 15.3468 13.7276 15.2077C13.7276 15.0634 13.8461 14.9501 13.9852 14.9501H19.827ZM13.3722 19.298C13.1043 19.5659 9.77639 22.9349 9.46215 23.1462C9.41279 23.1792 9.35351 23.1942 9.29436 23.1886C9.23522 23.183 9.17984 23.157 9.1376 23.1153L7.08215 21.0546C6.97912 20.9568 6.97912 20.7919 7.08215 20.694C7.18003 20.591 7.34488 20.591 7.44791 20.694L9.34367 22.5898C9.35912 22.5795 9.37457 22.564 9.40033 22.5486L13.0064 18.9374C13.1043 18.8343 13.2691 18.8343 13.3722 18.9374C13.47 19.0352 13.47 19.2001 13.3722 19.298ZM12.8622 10.798C12.9652 10.6949 13.1249 10.6949 13.2279 10.798C13.3258 10.8959 13.3258 11.0607 13.2279 11.1637L9.78154 14.6101C9.70942 14.708 9.65276 14.7801 9.59094 14.8522L9.38488 15.1149C9.34367 15.1716 9.27154 15.2077 9.19942 15.2128H9.18397C9.117 15.2128 9.05003 15.1871 8.99851 15.1407L7.02548 13.1625C6.97841 13.1143 6.95206 13.0496 6.95206 12.9822C6.95206 12.9148 6.97841 12.8501 7.02548 12.8019C7.12851 12.6989 7.28821 12.6989 7.39124 12.8019L9.15821 14.5689C9.16851 14.5586 9.17882 14.5431 9.18912 14.5328L9.39518 14.2701L12.8622 10.798ZM8.32882 28.2771L7.89094 28.7201L8.30821 29.1374L8.89033 28.5553L8.47306 28.1328L8.33397 28.2771H8.32882ZM6.54639 28.6274L7.08215 29.1631L7.52518 28.7201L7.38609 28.5759C7.33457 28.5295 7.33457 28.4471 7.38609 28.3956C7.43245 28.344 7.51488 28.344 7.56639 28.3956L7.70548 28.5346L8.05579 28.1843L7.52003 27.6486L6.54639 28.6274ZM5.31003 28.5449C5.25851 28.5965 5.17609 28.5965 5.12457 28.5449C5.10218 28.5192 5.08984 28.4863 5.08984 28.4522C5.08984 28.4181 5.10218 28.3852 5.12457 28.3595L5.547 27.9422C5.54185 27.9062 5.547 27.8649 5.57791 27.8392C5.60882 27.8083 5.64488 27.798 5.68609 27.8031L6.47427 27.0201C6.52064 26.9686 6.60306 26.9686 6.65457 27.0201C6.70609 27.0665 6.70609 27.1489 6.65457 27.2004L5.887 27.968L6.36609 28.4419L7.33973 27.4631L6.92245 27.0459C6.87094 26.9943 6.87094 26.9171 6.92245 26.8656C6.97397 26.814 7.05639 26.814 7.10276 26.8656L7.52518 27.2828L8.01457 26.7934L7.57154 26.3504C7.52003 26.2989 7.52003 26.2216 7.57154 26.1701C7.62306 26.1186 7.70033 26.1186 7.75185 26.1701L8.19488 26.6131L8.67912 26.1237C8.73063 26.0774 8.81306 26.0774 8.86457 26.1237C8.91094 26.1753 8.91094 26.2577 8.86457 26.3092L8.37518 26.7934L8.75124 27.1695C8.80276 27.221 8.80276 27.2983 8.75124 27.3498C8.69973 27.4013 8.62245 27.4013 8.57094 27.3498L8.19488 26.9737L7.70548 27.4683L8.24124 28.004L8.29276 27.9525L8.17427 27.834C8.12276 27.7877 8.12276 27.7052 8.17427 27.6537C8.22579 27.6022 8.30821 27.6022 8.35457 27.6537L8.47306 27.7722L8.91609 27.3292C8.9676 27.2777 9.04488 27.2777 9.09639 27.3292C9.14791 27.3807 9.14791 27.4631 9.09639 27.5146L8.65851 27.9525L9.07579 28.3749L9.17882 28.2719C9.23033 28.2204 9.31276 28.2204 9.35912 28.2719C9.41064 28.3234 9.41064 28.4007 9.35912 28.4522L8.48336 29.328C8.51427 29.3795 8.51427 29.4413 8.47306 29.4825C8.4473 29.5083 8.41639 29.5186 8.38033 29.5186C8.35973 29.5186 8.33912 29.5083 8.31851 29.4928L7.65912 30.1522C7.6076 30.2037 7.53033 30.2037 7.47882 30.1522C7.4273 30.1059 7.4273 30.0234 7.47882 29.9719L8.12791 29.3228L7.71063 28.9056L7.25215 29.3589C7.2676 29.4053 7.2676 29.4568 7.22639 29.4928C7.20579 29.5186 7.16973 29.5289 7.13882 29.5289C7.12336 29.5289 7.11306 29.5186 7.0976 29.5134L6.68548 29.9204C6.63397 29.9719 6.55154 29.9719 6.50518 29.9204C6.45367 29.874 6.45367 29.7916 6.50518 29.7401L6.90185 29.3434L6.36094 28.8077L5.52639 29.6422C5.47488 29.6937 5.39245 29.6937 5.34609 29.6422C5.29457 29.5959 5.29457 29.5134 5.34609 29.4619L6.18064 28.6274L5.7067 28.1483L5.31003 28.5449Z" fill="#840D06"/>
<path d="M2.54688 10.5614L1.91324 9.92771C1.88749 10.345 1.86688 10.7932 1.84627 11.262L2.54688 10.5614ZM27.9902 18.0001L31.9363 21.0138L33.4199 18.9738C33.6981 18.5823 33.6414 18.0465 33.2808 17.7271C32.4759 17.0178 31.646 16.3373 30.7926 15.6871C30.692 15.611 30.5771 15.5561 30.4548 15.5254C30.3324 15.4948 30.2052 15.4892 30.0806 15.5089C29.956 15.5287 29.8367 15.5733 29.7298 15.6402C29.6229 15.7071 29.5306 15.7949 29.4584 15.8983C29.0051 16.5526 28.5105 17.2635 27.9902 18.0001ZM25.6978 27.6438L24.9766 28.3701L25.2084 28.6071L25.9348 27.8807L25.6978 27.6438ZM24.1729 27.752C24.2193 27.7004 24.3017 27.7004 24.3532 27.752L24.7911 28.1898L25.5175 27.4635L25.3166 27.2626C25.2651 27.211 25.2651 27.1338 25.3166 27.0823C25.3629 27.0307 25.4454 27.0307 25.4969 27.0823L25.6978 27.2832L26.4345 26.5465C26.486 26.495 26.5684 26.495 26.6148 26.5465C26.6663 26.598 26.6663 26.6804 26.6148 26.7268L25.8781 27.4635L26.1151 27.7004L26.9496 26.8659L26.6251 26.5414L26.2593 26.1756C26.2129 26.1292 26.2129 26.0468 26.2593 25.9953C26.3108 25.9438 26.3932 25.9438 26.4448 25.9953L27.1351 26.6856L27.6142 26.2014C27.6657 26.155 27.7429 26.155 27.7945 26.2014C27.846 26.2529 27.846 26.3353 27.7945 26.3868L27.3154 26.8659L27.3257 26.8762C27.3772 26.9277 27.3772 27.0101 27.3257 27.0617C27.2742 27.108 27.1917 27.108 27.1454 27.0617L27.1351 27.0462L26.3005 27.8807L26.4963 28.0817C26.5478 28.1332 26.5478 28.2156 26.4963 28.262C26.4448 28.3135 26.3623 28.3135 26.316 28.262L26.1151 28.0662L25.3938 28.7874L25.6308 29.0295C25.6823 29.0759 25.6823 29.1583 25.6308 29.2098C25.5793 29.2614 25.502 29.2614 25.4505 29.2098L25.2084 28.9677L25.0487 29.1326C25.0023 29.1789 24.9199 29.1789 24.8684 29.1326C24.8169 29.081 24.8169 28.9986 24.8684 28.9471L25.0281 28.7874L24.7911 28.5504L24.2451 29.0965L25.4454 29.9723L27.3617 27.3244C28.0572 26.3714 28.7475 25.4235 29.4378 24.4704L29.0978 24.8053C29.1132 24.8517 29.1132 24.9032 29.0772 24.9444C29.0514 24.965 29.0205 24.9804 28.9845 24.9804C28.969 24.9804 28.9587 24.965 28.9432 24.9598L28.5311 25.372C28.4796 25.4235 28.4023 25.4235 28.3508 25.372C28.2993 25.3204 28.2993 25.238 28.3508 25.1917L28.7475 24.795L28.4538 24.5014L27.6502 25.3101L28.1293 25.7892C28.1808 25.8407 28.1808 25.9232 28.1293 25.9747C28.0829 26.0262 28.0005 26.021 27.949 25.9747L27.4648 25.4904L27.0835 25.8717C27.032 25.9232 26.9496 25.9232 26.9032 25.8717C26.8517 25.8201 26.8517 25.7429 26.9032 25.6914L27.2845 25.3101L27.2329 25.2586C27.2105 25.234 27.1981 25.2018 27.1981 25.1685C27.1981 25.1351 27.2105 25.103 27.2329 25.0783C27.2845 25.0268 27.3669 25.0268 27.4184 25.0783L27.4648 25.1247L28.2735 24.321L28.1551 24.2026C28.1429 24.1907 28.1332 24.1766 28.1264 24.161C28.1197 24.1454 28.1161 24.1286 28.1159 24.1117C28.1157 24.0947 28.1188 24.0778 28.125 24.062C28.1313 24.0463 28.1406 24.0319 28.1525 24.0197C28.1643 24.0075 28.1784 23.9978 28.194 23.9911C28.2096 23.9843 28.2264 23.9808 28.2434 23.9805C28.2604 23.9803 28.2772 23.9834 28.293 23.9897C28.3088 23.9959 28.3232 24.0053 28.3354 24.0171L28.9278 24.6095L29.2987 24.2386C29.3502 24.1871 29.4326 24.1871 29.479 24.2386C29.5202 24.2798 29.5202 24.3314 29.4996 24.3829C30.2105 23.3989 30.9214 22.415 31.6375 21.431L27.6914 18.4226C25.8111 21.0704 23.3332 24.4962 21.4529 27.072L24.0338 28.9471L24.6108 28.3701L24.1729 27.9323C24.1214 27.8807 24.1214 27.7983 24.1729 27.752ZM20.6802 31.4456C22.1999 31.1623 23.6681 30.8429 25.0229 30.302L21.2623 27.5717L20.6802 31.4456ZM6.74021 5.72923L7.20385 5.26044C7.01839 5.27075 6.82779 5.2759 6.64233 5.2862C6.58567 5.2862 6.529 5.29135 6.47233 5.29135C6.49294 5.2965 6.5187 5.30165 6.53415 5.32226C6.58567 5.36862 6.58567 5.45105 6.53415 5.50256L6.52385 5.51287L6.74021 5.72923ZM6.34355 5.33256L6.35385 5.31711C6.3693 5.30165 6.38991 5.30165 6.41052 5.2965C6.37446 5.2965 6.34355 5.30165 6.31264 5.30165L6.34355 5.33256ZM5.96749 5.32226C5.48324 5.35317 4.999 5.40468 4.52506 5.49741L5.35446 6.32165L6.15809 5.51287L5.96749 5.32226ZM3.41233 6.32681L3.05688 5.9765V5.97135C2.81991 6.09499 2.59839 6.22893 2.40264 6.39893C2.37688 6.43499 2.35112 6.4865 2.32536 6.55862L2.75294 6.9862L3.41233 6.32681ZM19.2532 7.3159L18.9184 7.64559L19.3511 8.07317C19.3666 8.09378 19.3717 8.11953 19.3769 8.14529H19.686C20.0569 8.14529 20.4742 8.12468 20.6287 7.87741C20.7678 7.66105 20.6596 7.41378 20.5154 7.20772C20.5102 7.21802 20.5154 7.22832 20.5051 7.23347L19.7426 8.00105C19.7169 8.02165 19.6808 8.03711 19.6499 8.03711C19.6138 8.03711 19.5829 8.02165 19.5572 8.00105C19.5348 7.97535 19.5225 7.94241 19.5225 7.90832C19.5225 7.87423 19.5348 7.84129 19.5572 7.81559L19.6551 7.71771L19.2532 7.3159ZM18.4651 8.10408C18.4393 8.12468 18.4084 8.13499 18.3775 8.14014L19.0523 8.14529L18.7381 7.8259L18.4651 8.10408ZM17.2081 7.57862L16.6569 8.12468L16.6517 8.12984L17.7645 8.13499L17.2081 7.57862ZM16.3735 8.12468L15.8017 7.55802L15.2557 8.10408C15.2454 8.11438 15.2351 8.11438 15.2248 8.11953L16.3735 8.12468ZM14.8951 8.11438L14.2923 7.51165L13.8493 7.95984L13.9935 8.10923L14.8951 8.11438ZM12.309 4.24044C12.2832 3.17923 12.9375 2.17984 13.8957 1.82953C14.9054 1.45347 16.116 1.87075 16.6569 2.77226C16.9763 3.29256 17.0329 3.97256 16.832 4.57529C16.9093 4.5959 16.9866 4.62165 17.0638 4.64741C25.1723 4.83802 25.8729 5.14196 26.5735 5.59014C26.8311 5.74984 27.4957 6.17741 27.7481 17.4489C28.2066 16.805 28.6393 16.1817 29.036 15.6047C29.5099 14.9298 30.4423 14.7804 31.1017 15.275C31.8951 15.8726 32.8842 16.6865 33.626 17.3459C33.9454 17.6292 34.1102 18.0259 34.1102 18.4277C34.1102 18.7214 34.0226 19.0201 33.8372 19.2777C31.8384 22.0389 29.8345 24.8001 27.8305 27.5562C27.8305 27.9477 27.8254 28.2104 27.8202 28.3186C27.7635 29.622 27.6193 30.9768 26.5375 31.9144C25.399 32.9138 23.596 33.0786 21.999 33.1507C19.6551 33.2589 17.3214 33.3104 15.0032 33.3104C11.5363 33.3104 8.11052 33.192 4.76203 32.9601C3.7884 32.8932 2.85597 32.8004 2.11415 32.3368C1.95446 32.2338 1.65052 32.0432 1.41355 29.1429C1.17143 26.0983 1.08385 19.8598 1.21264 14.6207L0.929304 14.3374C0.88294 14.291 0.88294 14.2086 0.929304 14.1571C0.980819 14.1056 1.06324 14.1056 1.11476 14.1571L1.22294 14.2653L1.2693 12.7971L1.22809 12.7559C1.17658 12.7044 1.17658 12.622 1.22809 12.5756C1.24355 12.5601 1.26415 12.5601 1.27961 12.5498C1.29506 12.1326 1.31567 11.7204 1.33627 11.3289L1.32597 11.3186C1.27446 11.2671 1.27446 11.1898 1.32597 11.1383C1.33112 11.1332 1.34143 11.1332 1.34658 11.128C1.49082 8.3462 1.72779 6.31135 2.06264 6.01256C3.22173 4.99771 5.02476 4.83802 6.61658 4.77105C7.8993 4.70923 9.20264 4.66802 10.6142 4.63711C11.1602 4.44135 11.7166 4.32287 12.309 4.24044ZM19.6808 8.66559C10.8357 8.60378 11.8351 8.59347 11.1087 8.65014H11.0829C9.62506 8.76347 7.84779 8.8562 7.98173 7.39832C8.05385 6.63075 8.7493 5.69317 9.48597 5.19347C9.49627 5.18832 9.50142 5.18317 9.50658 5.17802C8.85233 5.19862 8.2187 5.21923 7.59536 5.24499L7.92506 5.57984L8.23415 5.2759C8.28052 5.22438 8.36294 5.22438 8.41446 5.2759C8.46597 5.32226 8.46597 5.40468 8.41446 5.4562L8.11052 5.76014L8.12082 5.77559C8.17233 5.82196 8.17233 5.90438 8.12082 5.9559C8.0693 6.00741 7.99718 6.01256 7.91991 5.93529C7.8993 5.95075 7.8787 5.9662 7.85294 5.9662C7.82203 5.9662 7.78597 5.95075 7.76021 5.92499C7.719 5.88378 7.719 5.81681 7.74991 5.77044L7.40991 5.42529L6.92052 5.90953L6.98233 5.9662C7.0287 6.01771 7.0287 6.10014 6.98233 6.15165C6.93082 6.20317 6.84839 6.20317 6.79688 6.15165L6.34355 5.69832L5.46779 6.56893C5.42143 6.62044 5.33385 6.63074 5.27718 6.54832H5.27203C5.23597 6.54832 5.20506 6.53802 5.1793 6.51226L4.24688 5.57984C4.24173 5.57468 4.24173 5.56438 4.23658 5.55408C3.91203 5.63135 3.59264 5.72408 3.299 5.85287L3.59779 6.15165L3.71627 6.02802C3.76779 5.9765 3.85021 5.9765 3.89658 6.02802C3.94809 6.07953 3.94809 6.16196 3.89658 6.21347L3.77809 6.33196L4.3293 6.88317C4.38082 6.92953 4.38082 7.01196 4.3293 7.06347C4.27779 7.11499 4.19536 7.11499 4.149 7.06347L3.59779 6.51226L2.93839 7.17165L3.38143 7.61468C3.42779 7.66105 3.42779 7.74347 3.38143 7.79499C3.32991 7.8465 3.24749 7.8465 3.19597 7.79499L2.75809 7.35711L2.50052 7.60953C2.449 7.66105 2.36658 7.66105 2.32021 7.60953C2.2687 7.55802 2.2687 7.47559 2.32021 7.42923L2.57264 7.17165L2.24294 6.84196C2.17597 7.13559 2.11415 7.55287 2.06264 8.07832L2.6293 8.64499L3.51021 7.76923C3.55658 7.71771 3.639 7.71771 3.69052 7.76923C3.74203 7.82074 3.74203 7.90317 3.69052 7.94953L2.81476 8.83044L3.47415 9.48984C3.52567 9.54135 3.52567 9.62378 3.47415 9.67014C3.42264 9.72165 3.34021 9.72165 3.29385 9.67014L2.6293 9.01075L2.29961 9.34044C2.25324 9.39196 2.17082 9.39196 2.1193 9.34044C2.06779 9.28893 2.06779 9.2065 2.1193 9.16014L2.449 8.83044L2.02658 8.40802C1.99567 8.76347 1.96476 9.16014 1.939 9.58771L2.72718 10.381L3.21143 9.89681C3.32991 9.77832 3.51021 9.95862 3.39173 10.0771L2.84052 10.6283C2.83536 10.6386 2.84052 10.6541 2.83021 10.6592C2.81991 10.6695 2.80961 10.6695 2.7993 10.6747L1.92355 11.5504L2.45415 12.081C2.46633 12.0929 2.47606 12.107 2.48278 12.1226C2.48949 12.1382 2.49308 12.155 2.49332 12.172C2.49355 12.1889 2.49045 12.2058 2.48417 12.2216C2.47789 12.2374 2.46857 12.2517 2.45673 12.2639C2.44489 12.2761 2.43077 12.2858 2.41517 12.2925C2.39957 12.2993 2.3828 12.3028 2.36582 12.3031C2.34884 12.3033 2.33198 12.3002 2.3162 12.2939C2.30042 12.2877 2.28603 12.2783 2.27385 12.2665L1.82567 11.8183C1.81021 12.1841 1.79476 12.5601 1.78446 12.9465L1.939 13.101L3.01567 12.0244C3.06203 11.9729 3.14446 11.9729 3.19597 12.0244C3.24749 12.0759 3.24749 12.1583 3.19597 12.2098L2.1193 13.2814L2.35112 13.5132C2.40264 13.5647 2.40264 13.6471 2.35112 13.6986C2.29961 13.7501 2.22233 13.745 2.17082 13.6986L1.939 13.4668L1.76385 13.642C1.75355 14.0129 1.74324 14.3941 1.73809 14.7804L1.81536 14.8577L2.76324 13.9098C2.81476 13.8583 2.89203 13.8583 2.94355 13.9098C2.99506 13.9614 2.99506 14.0386 2.94355 14.0901L1.99567 15.038L2.16052 15.208C2.21203 15.2544 2.21203 15.3368 2.16052 15.3883C2.11415 15.4398 2.03173 15.4398 1.98021 15.3883L1.81536 15.2235L1.72779 15.311C1.599 22.4356 1.82052 31.3168 2.40264 31.9092C3.02597 32.3007 3.89143 32.3883 4.79809 32.445C10.3617 32.8314 16.1417 32.8983 21.9784 32.6407C23.4878 32.5686 25.1826 32.4192 26.1975 31.528C27.1248 30.7192 27.2484 29.5395 27.3051 28.2929V28.2826L25.7957 30.3689C25.7957 30.4926 25.7287 30.575 25.6051 30.6059C25.5845 30.6213 25.569 30.6368 25.5484 30.6471C23.9566 31.3374 22.2102 31.6929 20.4175 32.0174C20.3771 32.0249 20.3354 32.0226 20.2961 32.0106C20.2567 31.9986 20.2209 31.9773 20.1916 31.9485C20.1622 31.9196 20.1403 31.8842 20.1276 31.845C20.1149 31.8059 20.1119 31.7643 20.1187 31.7238L20.8038 27.1338C20.8116 27.0917 20.8273 27.0515 20.8502 27.0153C21.2263 26.5001 24.4202 22.1368 27.2484 18.1495C27.0372 7.4962 26.4654 6.17226 26.2954 6.01771C25.6566 5.6159 24.9714 5.41499 18.5011 5.20378C18.5423 5.21923 18.5784 5.24499 18.6196 5.26559C19.1348 5.51287 19.8251 5.91468 20.3505 6.31135C20.9893 6.78529 21.4581 7.53741 21.0666 8.15044V8.15559C20.7317 8.6759 20.0208 8.67075 19.686 8.66559H19.6808ZM12.3863 8.05771L12.3451 8.09893H12.4275L12.3863 8.05771ZM12.3863 7.69711L13.2466 6.83165C13.2981 6.78014 13.3805 6.78014 13.4269 6.83165C13.4784 6.88317 13.4784 6.96559 13.4269 7.01711L12.5666 7.87741L12.6851 7.9959C12.716 8.02681 12.7211 8.06287 12.7211 8.09893L13.3599 8.10408C13.3651 8.09378 13.3651 8.07832 13.3754 8.06802L13.4835 7.95984L13.1229 7.59923C13.0714 7.55287 13.0714 7.47044 13.1229 7.41893C13.1745 7.36741 13.2517 7.36741 13.3032 7.41893L13.6638 7.77953L14.7457 6.69771C14.7972 6.6462 14.8796 6.6462 14.9311 6.69771C14.9775 6.74408 14.9775 6.8265 14.9311 6.87802L14.4726 7.33135L15.0702 7.92378L15.6214 7.37256L15.4926 7.24378C15.4411 7.19226 15.4411 7.11499 15.4926 7.06347C15.539 7.01196 15.6214 7.01196 15.6729 7.06347L15.8017 7.19226L16.5229 6.47105C16.5745 6.41953 16.6569 6.41953 16.7032 6.47105C16.7548 6.51741 16.7548 6.59984 16.7032 6.65135L15.982 7.37256L16.5126 7.90317L17.0226 7.39317L16.6414 7.01196C16.5951 6.96559 16.5951 6.88317 16.6414 6.83165C16.6929 6.78014 16.7754 6.78014 16.8269 6.83165L17.2081 7.21287L18.4084 6.01256C18.4548 5.96105 18.5372 5.96105 18.5887 6.01256C18.6402 6.06408 18.6402 6.14135 18.5887 6.19287L17.3884 7.39317L18.1302 8.13499L18.362 8.14014C18.3315 8.13678 18.3028 8.1242 18.2796 8.10408C18.2281 8.05256 18.2281 7.97014 18.2796 7.92378L18.5526 7.64559L17.986 7.07893C17.9345 7.02741 17.9345 6.94499 17.986 6.89347C18.0375 6.84196 18.1148 6.84196 18.1663 6.89347L18.7381 7.46529L19.0678 7.13044L18.6763 6.73893C18.6248 6.69256 18.6248 6.61014 18.6763 6.55862C18.7278 6.50711 18.8102 6.50711 18.8617 6.55862L19.2481 6.95014L19.5417 6.66165C19.5932 6.61014 19.6757 6.61014 19.722 6.66165C19.7735 6.70802 19.7735 6.79044 19.722 6.84196L19.4335 7.13044L19.8354 7.53741C19.892 7.48074 20.3042 7.05317 20.3763 7.02741C20.2732 6.91408 20.1651 6.8162 20.0414 6.72347C19.006 5.95075 17.816 5.36347 16.4148 4.99771C16.378 4.98681 16.3438 4.96835 16.3146 4.94351C16.2853 4.91868 16.2615 4.88801 16.2448 4.85347C16.2138 4.78135 16.2138 4.69893 16.2499 4.63196C16.5075 4.12196 16.4972 3.49862 16.219 3.04014C15.8069 2.35499 14.8487 2.02529 14.076 2.31378C13.3135 2.59196 12.7778 3.43165 12.8242 4.27135C12.8448 4.49802 12.8705 4.69893 12.6129 4.72468C12.0566 4.7762 11.3251 4.92044 10.7429 5.13681C9.15627 5.71378 8.54324 6.89862 8.49688 7.44468C8.41961 8.26893 9.42415 8.26378 11.0675 8.13499C11.6754 8.08862 11.7269 8.09378 11.9845 8.09893L12.2008 7.87741L12.139 7.81044C12.0875 7.76408 12.0875 7.68165 12.139 7.63014C12.1854 7.57862 12.2678 7.57862 12.3193 7.63014L12.3863 7.69711Z" fill="#840D06"/>
</g>
</g>
<defs>
<clipPath id="clip0_3043_46233">
<rect width="34" height="34" fill="white" transform="translate(0.5 0.5)"/>
</clipPath>
<clipPath id="clip1_3043_46233">
<rect width="34" height="34" fill="white" transform="translate(0.5 0.5)"/>
</clipPath>
</defs>
</svg>
